<?xml version="1.0" encoding="utf-8"?>
<!-- Generator: Adobe Illustrator 22.1.0, SVG Export Plug-In . SVG Version: 6.00 Build 0)  -->
<svg version="1.1" id="Слой_1" xmlns="http://www.w3.org/2000/svg" xmlns:xlink="http://www.w3.org/1999/xlink" x="0px" y="0px"
	 viewBox="0 0 521 512" style="enable-background:new 0 0 521 512;" xml:space="preserve">
<style type="text/css">
	.st0{fill:#06662F;}
	.st1{fill:#108A37;}
	.st2{fill:#FFFFFF;stroke:#06662F;stroke-width:4;stroke-miterlimit:10;}
	.st3{fill:#010202;stroke:#010202;stroke-width:4;stroke-miterlimit:10;}
	.st4{fill:#FFFFFF;stroke:#010202;stroke-width:4;stroke-miterlimit:10;}
	.st5{fill:#FFFFFF;}
	.st6{fill:#0B662F;}
	.st7{fill:#3C9235;}
	.st8{fill:#5EB130;}
	.st9{fill:#FFFFFF;stroke:#3C9236;stroke-width:4;stroke-miterlimit:10;}
	.st10{fill:#193A1D;}
	.st11{fill:#225527;}
	.st12{fill:#FFFFFF;stroke:#1B3A1F;stroke-width:5;stroke-miterlimit:10;}
	.st13{fill:#FFFFFF;stroke:#193A1D;stroke-width:7;stroke-miterlimit:10;}
	.st14{fill:#A2C617;}
	.st15{fill:#78942A;}
	.st16{fill:#FFFFFF;stroke:#79942A;stroke-width:4;stroke-miterlimit:10;}
	.st17{fill:#79942A;}
	.st18{fill:#5FB669;}
	.st19{fill:#3B7F40;}
	.st20{fill:#FFFFFF;stroke:#3B7F40;stroke-width:5;stroke-miterlimit:10;}
	.st21{fill:#18A638;}
	.st22{fill:#09672F;}
	.st23{fill:#FFFFFF;stroke:#0E672F;stroke-width:7;stroke-miterlimit:10;}
	.st24{fill:#0E672F;}
</style>
<g>
	<g>
		<path class="st0" d="M215.3,209.8c11.7-16.2,11.1-36.3,8.3-55.2c-1.4-9.6-2.7-19.6-7.4-28.2c-4.7-8.5-12.1-15-19.9-20.6
			c-7.9-5.6-15.4,7.4-7.6,13c6.1,4.3,11.9,9.7,15.2,16.5c3.4,7.1,4.2,15.6,5.2,23.3c2.1,15.1,2.5,30.7-6.8,43.6
			c-2.4,3.3-0.5,8.3,2.7,10.3C208.8,214.7,213,213.1,215.3,209.8L215.3,209.8z"/>
	</g>
</g>
<g>
	<g>
		<path class="st0" d="M268.5,206c-0.9-16.3,1.6-32.2,4.8-48.2c2.2-10.6,3.3-31,16.6-33.7c9.5-1.9,5.5-16.4-4-14.5
			c-18,3.7-22.7,23.1-25.9,38.5c-4,19-7.6,38.3-6.6,57.9C254,215.6,269,215.7,268.5,206L268.5,206z"/>
	</g>
</g>
<g>
	<path class="st1" d="M375.5,420c-3.9,3.9-16.9,8.3-22.4,7c-6.8-1.6-27.3-3.7-32.6-8.3c-5.7-5-13-12-19.5-8.2
		c-5.2,3-5.2,10.9-9.6,15c-5.2,4.8-13.6,2.2-19.3-2c-5.6-4.2-10.5-10-17.3-11.7c-8.7-2.3-17.6,2.8-24.3,8.8
		c-6.7,6-12.6,13.3-20.8,16.9c-13.2,5.9-30.6-0.4-36.9-13.5c-1.2-2.4-2-5-3.6-7.1c-3.8-4.8-11-5.5-16.9-3.7
		c-5.9,1.8-10.9,5.5-16.2,8.5c-9.2,5.1-20,7.9-30.2,5.4S86.8,416,86.2,405.5c-0.6-10.5,6.8-20.4,17.1-18.5l4.1,0.1
		c11.3,6.5,25.4-0.8,32.8-11.5c7.4-10.7,9.2-24.2,11.1-37.1c5.4-36.2,14-71.8,25.5-106.5c3.4-10.1,7.5-20.9,16.5-26.6
		c7.5-4.8,16.8-5.2,25.7-5.3c27.4-0.3,57.7,2,77.1,21.4c20.4,20.4,21.6,52.6,21.5,81.5c0,15-0.1,30-0.1,45
		c0,12.2,7.3,20.6,16.5,28.6c9.9,8.5,26-6,36,11C370,387.5,384,411.5,375.5,420z"/>
	<g>
		<path class="st0" d="M373.7,418.2c-4.3,3.9-12.5,6.8-18.3,6.5c-5.2-0.2-10.8-1.8-15.9-2.7c-5.5-1-12.5-1.7-17.1-5.1
			c-5.3-3.8-9.8-9.8-16.9-10c-6.4-0.2-9.6,4.8-11.9,10c-1.5,3.5-2.8,7.2-6.9,8.3c-4.5,1.3-9.5-1.2-13-3.8
			c-5.9-4.2-10.8-10.2-18.1-12.1c-7.2-1.8-14.5,0.7-20.5,4.6c-13.5,8.8-22.6,26.4-41.2,22.8c-7.1-1.4-13.7-5.5-17.5-11.7
			c-4-6.3-5.2-12.7-13.4-14.7c-7.1-1.7-14,1-20.1,4.5c-8.5,4.8-16.5,9.9-26.5,10.6c-9,0.6-18.1-2.5-23.6-9.9
			c-4.9-6.5-5.7-16.4,0.2-22.7c3.7-4,10.4-4.6,15.2-2.8c6.3,2.3,12.3,2.3,18.5-0.2c14.5-6,21.5-20.8,24.5-35.4
			c3.9-18.6,6-37.5,10-56.1c4.2-19.4,9.3-38.7,15.3-57.6c2.6-8.3,5-17.1,9.7-24.5c5.6-8.9,14.1-12.6,24.4-13.4
			c16.1-1.3,33.5-0.5,49.3,2.9c16,3.5,31.1,11.1,40.6,24.8c9.1,13.1,12.5,29.3,13.8,45c1.5,17.5,0.8,35.2,0.8,52.8
			c0,8.9-1.3,18.7,0.9,27.4c1.7,6.5,5.7,12.1,10.3,16.9c4,4.2,8.1,8.3,14.1,9.1c5.5,0.7,11-1,16.4-0.5c10.1,1,14.6,13.1,17.2,21.5
			C375.5,407.4,377.4,414.2,373.7,418.2c-2.1,2.4,1.4,5.9,3.5,3.5c7.2-8,1.9-21-2-29.4c-4.2-9.2-10.1-16.3-21.2-16.2
			c-6,0.1-13,2.4-18.3-1.5c-6.4-4.7-12.6-12-14.8-19.6c-1.3-4.6-1-9.3-1-14c0-5.5,0-11.1,0-16.6c0-10.2,0.2-20.4,0-30.6
			c-0.4-31.5-5.3-66.9-35.2-84.1c-14.3-8.2-31.1-11-47.4-11.9c-15.6-0.9-36.3-3.1-49,7.9c-5.9,5.1-9.4,12.4-12.1,19.6
			c-3.6,9.7-6.6,19.7-9.4,29.7c-5.9,20.3-10.7,41-14.6,61.8c-1.9,10.2-3.3,20.4-5,30.6c-1.6,9.3-3.8,18.9-9.3,26.8
			c-4.9,7-13.3,13.1-22.1,12.7c-3.3-0.2-5.9-2-9-2.4c-2.2-0.3-5.2-0.4-7.4-0.2c-14.1,1.3-18.7,18.8-13.5,29.9
			c7.3,15.5,26.2,19,41.2,14.1c9.3-3,16.6-10,25.9-12.7c4.3-1.3,10-1.3,13.5,2.1c3.1,3,4,8,6.6,11.5c7.9,11,23.4,16,36.1,11.2
			c7.6-2.9,13.3-8.7,19-14.3c6.6-6.4,15.9-14.6,25.9-12c8.6,2.3,13.7,10.8,21.6,14.4c5.8,2.6,13,3.1,17.7-1.8
			c5-5.1,5.5-18.7,15.6-13.7c6,2.9,9.6,8.4,16,10.7c6.4,2.2,13.3,3.2,20,4.3c5.3,0.9,9.9,2.1,15.3,1.1c5.8-1.1,12.3-3.4,16.7-7.4
			C379.7,419.6,376.1,416.1,373.7,418.2z"/>
	</g>
</g>
<circle class="st2" cx="161" cy="96" r="35.5"/>
<circle class="st3" cx="161" cy="96" r="22.2"/>
<circle class="st4" cx="172" cy="94.8" r="9.8"/>
<circle class="st2" cx="318.2" cy="95.2" r="35.5"/>
<circle class="st3" cx="318.2" cy="95.2" r="22.2"/>
<circle class="st4" cx="330.2" cy="95" r="9.8"/>
<g>
	<path class="st5" d="M219.4,272.9c14.8-0.5,31.5-1.1,46.3-1.5c1,0,2.1,0,2.8,0.7c0.4,0.5,0.6,1.2,0.7,1.8c1.3,9.2-2.6,19-9.9,24.7
		c-7.3,5.7-17.8,7.1-26.4,3.6c-11.7-4.8-23.4-23.2-14.5-29L219.4,272.9z"/>
	<g>
		<path class="st6" d="M219.4,275.4c11.9-0.4,23.9-0.8,35.8-1.2c2.8-0.1,6-0.6,8.8-0.3c2.4,0.3,2.6,0.4,2.9,2.9c0.1,0.9,0,2-0.1,2.9
			c-0.5,5.9-3.3,11.6-7.7,15.7c-8.7,8-22.3,8.2-31.3,0.7c-3.4-2.8-6.4-6.4-8.4-10.5c-1.2-2.4-3.7-9.3,0.6-10.3
			c3.1-0.7,1.8-5.5-1.3-4.8c-11.6,2.7-3.8,18.7,0.5,24c8.9,11,23.4,15.4,36.6,9.1c6.2-3,11-8.3,13.7-14.7c1.8-4.4,4.6-14.2,0.9-18.3
			c-2-2.3-5.4-1.7-8.2-1.6c-4.8,0.2-9.5,0.3-14.3,0.5c-9.5,0.3-19.1,0.6-28.6,1C216.2,270.5,216.2,275.5,219.4,275.4z"/>
	</g>
</g>
</svg>
