<?xml version="1.0" encoding="utf-8"?>
<!-- Generator: Adobe Illustrator 22.1.0, SVG Export Plug-In . SVG Version: 6.00 Build 0)  -->
<svg version="1.1" id="Слой_1" xmlns="http://www.w3.org/2000/svg" xmlns:xlink="http://www.w3.org/1999/xlink" x="0px" y="0px"
	 viewBox="0 0 521 512" style="enable-background:new 0 0 521 512;" xml:space="preserve">
<style type="text/css">
	.st0{fill:#06662F;}
	.st1{fill:#108A37;}
	.st2{fill:#FFFFFF;stroke:#06662F;stroke-width:4;stroke-miterlimit:10;}
	.st3{fill:#010202;stroke:#010202;stroke-width:4;stroke-miterlimit:10;}
	.st4{fill:#FFFFFF;stroke:#010202;stroke-width:4;stroke-miterlimit:10;}
	.st5{fill:#FFFFFF;}
	.st6{fill:#0B662F;}
	.st7{fill:#3C9235;}
	.st8{fill:#5EB130;}
	.st9{fill:#FFFFFF;stroke:#3C9236;stroke-width:4;stroke-miterlimit:10;}
	.st10{fill:#193A1D;}
	.st11{fill:#225527;}
	.st12{fill:#FFFFFF;stroke:#1B3A1F;stroke-width:5;stroke-miterlimit:10;}
	.st13{fill:#FFFFFF;stroke:#193A1D;stroke-width:7;stroke-miterlimit:10;}
	.st14{fill:#A2C617;}
	.st15{fill:#78942A;}
	.st16{fill:#FFFFFF;stroke:#79942A;stroke-width:4;stroke-miterlimit:10;}
	.st17{fill:#79942A;}
	.st18{fill:#5FB669;}
	.st19{fill:#3B7F40;}
	.st20{fill:#FFFFFF;stroke:#3B7F40;stroke-width:5;stroke-miterlimit:10;}
	.st21{fill:#18A638;}
	.st22{fill:#09672F;}
	.st23{fill:#FFFFFF;stroke:#0E672F;stroke-width:7;stroke-miterlimit:10;}
	.st24{fill:#0E672F;}
</style>
<g>
	<g>
		<path class="st7" d="M224.1,242.8c8-19.2,2.1-39.6-5.3-58c-3.5-8.8-7-17.5-13.7-24.5c-6.4-6.6-14.6-11-23.1-14.4
			c-3.8-1.5-8.2,1.7-9.2,5.2c-1.2,4.3,1.5,7.7,5.2,9.2c6.4,2.6,12.8,6.4,17.5,11.7c4.9,5.6,7.5,13.2,10.2,20.1
			c5.9,15.2,10.6,31,4,46.7c-1.6,3.8,1.7,8.2,5.2,9.2C219.2,249.2,222.6,246.5,224.1,242.8L224.1,242.8z"/>
	</g>
</g>
<g>
	<g>
		<path class="st7" d="M325.7,256.3c-0.9-16.3,1.6-32.2,4.8-48.2c2.2-10.6,3.3-31,16.6-33.7c9.5-1.9,5.5-16.4-4-14.5
			c-18,3.7-22.7,23.1-25.9,38.5c-4,19-7.6,38.3-6.6,57.9C311.2,265.9,326.2,266,325.7,256.3L325.7,256.3z"/>
	</g>
</g>
<g>
	<g>
		<path class="st7" d="M278.8,238c2.1-7.6,2.1-15.8,2.1-23.6c0-10.3-0.6-20.7-1.4-31c-0.8-10.2-1.9-20.4-3.3-30.6
			c-0.8-6-1.4-12.7-3.7-18.4c-1.5-3.7-5-6.4-9.2-5.2c-3.5,1-6.8,5.4-5.2,9.2c2.2,5.4,2.8,11.7,3.6,17.4c1.3,9,2.2,18.4,2.9,27.6
			c0.8,9.9,1.3,19.9,1.4,29.9c0,4.1,0,8.3-0.3,12.4c-0.1,1.1-0.2,2.2-0.3,3.2c0,0.3-0.3,2.5-0.1,0.9c-0.2,1.4-0.5,2.8-0.8,4.1
			C261.8,243.3,276.2,247.3,278.8,238L278.8,238z"/>
	</g>
</g>
<g>
	<path class="st8" d="M399.6,451.6c-3.9,3.9-16.9,8.3-22.4,7c-6.8-1.6-27.3-3.7-32.6-8.3c-5.7-5-15.1-25.2-21.6-21.3
		c-5.2,3-3.1,24-7.5,28.1c-5.2,4.8-13.6,2.2-19.3-2s-16.1-22.4-22.9-24.1c-8.7-2.3-12,15.2-18.7,21.2c-6.7,6-12.6,13.3-20.8,16.9
		c-13.2,5.9-21.6-0.1-27.9-13.2c-1.2-2.4-4.1-25.8-10-24s-30.4,18.4-35.8,21.4c-9.2,5.1-20,7.9-30.2,5.4s-19.2-11.2-19.8-21.7
		C109.7,426.7,133,424,133,424c18.2-2.7,23.8-6.1,31.3-16.8c7.4-10.7,9.2-24.2,11.1-37.1c5.4-36.2,14-71.8,25.5-106.5
		c3.4-10.1,7.5-20.9,16.5-26.6c7.5-4.8,16.8-5.2,25.7-5.3c27.4-0.3,57.7,2,77.1,21.4c20.4,20.4,21.6,52.6,21.5,81.5
		c0,15-0.1,30-0.1,45c0,12.2,7.3,20.6,16.5,28.6C367.9,416.6,408.1,443.1,399.6,451.6z"/>
	<g>
		<path class="st7" d="M397.8,449.8c-11.3,10.3-28.6,5.4-41.7,2.3c-3-0.7-6.5-1.4-9.1-3.1c-2.6-1.8-4.3-4.8-6.1-7.3
			c-3.4-4.9-6.8-11.1-12-14.3c-12-7.4-12.2,14.7-13.2,20.9c-0.4,2.9-0.6,6-3.2,7.7c-4.5,2.9-11.4,0-15.1-3.1
			c-5.4-4.5-9.1-11.1-13.6-16.4c-3.2-3.7-7.5-8.8-13-8.2c-5.9,0.7-9,7.3-11.4,11.9c-1.6,3-3.1,6.2-5.3,8.9c-2.9,3.5-6.7,6.5-10,9.6
			c-6.4,6-16.5,13.5-25.6,8.8c-12.3-6.3-10.8-21.4-15.6-32.2c-1.6-3.7-4.2-6.9-8.5-5.5c-5,1.7-9.8,5.2-14.3,8
			c-12.8,7.9-25.8,18.9-41.5,19.3c-10.7,0.2-22.2-5.6-25.2-16.6c-2.1-7.5,4.2-10.3,10.5-12.1c10.6-3.2,22.4-2.4,32.2-9
			c14.3-9.6,18.6-28,21-43.9c3.6-23.2,7.9-46.2,13.7-68.9c2.9-11.5,6.2-22.9,9.8-34.2c3.1-9.8,5.9-21,12.9-28.9
			c7.8-8.8,19.4-9.3,30.4-9.4c9.6-0.1,19.2,0.2,28.7,1.3c19.5,2.3,39.2,9.2,51.3,25.6c11.3,15.4,14.2,35.2,15.1,53.8
			c0.5,10.5,0.3,21,0.3,31.5c0,11.7-0.9,23.8,0,35.5c1.1,14.7,12.6,24.8,23.6,33.2c10.5,8,21.6,15.7,30.5,25.5
			C394.6,442,400,447.4,397.8,449.8c-2.1,2.4,1.4,5.9,3.5,3.5c7-7.8-6.7-19-11.8-23.5c-9.5-8.4-20.1-15.4-29.7-23.6
			c-7.7-6.6-15.2-14.6-15.8-25.3c-0.7-12.8,0-25.8,0.1-38.6c0.1-19.9,0.5-40.3-4.9-59.7c-5.1-18.5-16.2-34.3-33.6-43.1
			c-17.4-8.7-37.4-10.4-56.5-10.5c-10-0.1-21-0.5-30.2,4c-8.5,4.1-13.7,12.2-17.2,20.7c-9.3,22.3-15,46.7-20.3,70.1
			c-2.8,12.5-5.3,25.1-7.3,37.8c-1.8,10.8-2.8,22-6.3,32.4c-2.7,7.9-7.6,16.5-14.8,21.2c-6.2,4-14,5.1-21.1,6.2
			c-8.1,1.2-22.7,3.9-24.1,13.9c-1.1,7.8,4.7,16,10.6,20.4c8,6,18.1,7.3,27.7,5.3c14.6-3,27-13.3,39.4-20.9c2.7-1.7,5.5-3.3,8.4-4.8
			c2.4-1.2,2.6-1.6,4,0.8c2.9,5.3,3.6,11.8,4.9,17.6c3.2,13.9,16.5,23.4,30.3,18.1c9.2-3.5,16.5-11.3,23.3-18.2
			c5.1-5.2,6.9-12.5,11.5-18.1c5.5-6.6,11.7,3.2,15.2,7.5c4.3,5.4,8.2,11.9,14.3,15.4c5.9,3.5,15.9,5.6,20.7-0.9
			c3.5-4.7,3-12.5,3.7-18.1c0.2-1.9,0.4-7.1,2.1-8.4c2.2-1.6,5.1,2.5,6.4,4c4.4,5.2,7.4,12.1,12.6,16.6c5,4.3,13.1,5.2,19.3,6.4
			c6.1,1.1,13.2,3.3,19.4,2.8c6.8-0.6,14.7-3.2,19.7-7.9C403.7,451.2,400.2,447.7,397.8,449.8z"/>
	</g>
</g>
<circle class="st9" cx="145.7" cy="144.3" r="35.5"/>
<circle class="st3" cx="145.7" cy="144.3" r="22.2"/>
<circle class="st4" cx="156.1" cy="140.7" r="9.8"/>
<circle class="st9" cx="375.3" cy="145.5" r="35.5"/>
<circle class="st3" cx="375.3" cy="145.5" r="22.2"/>
<circle class="st4" cx="387.3" cy="145.3" r="9.8"/>
<g>
	<path class="st5" d="M289.6,333.2c-14.8,1-31.5,2.1-46.2,3c-1,0.1-2.1,0.1-2.8-0.6c-0.5-0.5-0.6-1.1-0.7-1.8
		c-1.6-9.2,2-19.1,9.1-25c7.2-5.9,17.6-7.7,26.3-4.4c11.8,4.5,24.2,22.4,15.4,28.5L289.6,333.2z"/>
	<g>
		<path class="st7" d="M289.6,330.7c-12.2,0.8-24.4,1.6-36.6,2.4c-2.7,0.2-6,0.9-8.7,0.6c-3.1-0.3-2.4-4.2-2.1-6.8
			c0.6-5.8,3.3-11.3,7.5-15.3c8.6-8,22.2-8.2,31.2-1c3.6,2.9,6.8,6.6,8.8,10.8c1.1,2.3,3.1,8.3-0.7,9.3c-3.1,0.8-1.8,5.6,1.3,4.8
			c11.5-3,3.3-18.7-1.2-23.9c-9.3-10.8-23.9-14.7-36.8-8c-6.1,3.2-10.8,8.7-13.3,15.1c-1.7,4.4-4.1,14.3-0.3,18.4
			c2.1,2.3,5.4,1.6,8.2,1.4c4.7-0.3,9.5-0.6,14.2-0.9c9.5-0.6,19-1.3,28.6-1.9C292.8,335.5,292.8,330.5,289.6,330.7z"/>
	</g>
</g>
<path class="st9" d="M310.9,93.5c0,25.1-17.3,45.4-42.4,45.4s-48.4-20.3-48.4-45.4s20.3-45.4,45.4-45.4S310.9,68.4,310.9,93.5z"/>
<circle class="st3" cx="265.5" cy="93.5" r="28.3"/>
<circle class="st4" cx="279.5" cy="92" r="12.6"/>
</svg>
