<svg id="Слой_1" data-name="Слой 1" xmlns="http://www.w3.org/2000/svg" viewBox="0 0 512 512"><defs><style>.cls-1,.cls-3,.cls-4{fill:#fff;}.cls-1,.cls-2,.cls-3{stroke:#000;stroke-miterlimit:10;}.cls-1{stroke-width:7px;}.cls-2,.cls-3{stroke-width:4px;}</style></defs><title>Монтажная область 2</title><path d="M408,399c1.64,5.33-23,35-47.84,33.12-7-.52-27.32-3.71-32.59-8.3-5.73-5-15.08-25.16-21.64-21.32-5.2,3,6.55,62,1.07,59.5-13.18-6-22.89-15-27.84-33.35-1.82-6.77-16.09-22.38-22.88-24.15-8.69-2.27-18.54,12.23-18.68,21.21-.21,13.77,12.77,46.62,4.57,50.29-13.22,5.92-40.89-28.87-53.24-46.5-1.53-2.17-16.83,39-22.93,38.5-25-2-17.48-44.11-22.84-41.14-9.15,5.06-20,7.9-30.19,5.42s-19.16-11.2-19.75-21.65,22.71-13.13,22.71-13.13c18.19-2.74,23.85-6.1,31.25-16.82s9.15-24.2,11.09-37.08a642.12,642.12,0,0,1,25.48-106.54c3.35-10.11,7.51-20.86,16.47-26.62,7.47-4.79,16.85-5.17,25.72-5.26,27.43-.27,57.74,2,77.12,21.37,20.42,20.45,21.62,52.63,21.54,81.53l-.12,45c0,12.24,7.27,20.55,16.53,28.55C350.87,390.1,400,373,408,399Z"/><path d="M405.59,399.66c.32,1.53-2.3,4.73-3.16,5.95a62.4,62.4,0,0,1-9.73,10.49c-8.19,7.21-18.79,13.53-30,13.61-9.21.07-19.47-2.11-28.12-5.14-8.43-2.95-11.79-11.69-17.11-18.26-2.77-3.43-10.09-10.63-14.15-4.59-2.3,3.42-1.27,9.72-1,13.51.48,7.84,1.44,15.65,2.27,23.45.68,6.41,1.8,13.12,1.44,19.57a16.68,16.68,0,0,0-.24,2.14c-.19-.24,1.41-.27,1.37-1.09a28.12,28.12,0,0,0-3.35-1.71,44.15,44.15,0,0,1-12.82-10.35c-7-8.44-7.88-19.49-14.37-28.1-4.65-6.18-11.3-14.37-19-16.84-8.79-2.84-16.4,6.35-19.76,13.29-8.11,16.8,4.57,35.83,4.55,53.15,0,2.86-.11,5.27-3.41,5.43-3.72.18-7.53-2.36-10.46-4.37-8.31-5.71-15.28-13.56-21.75-21.2q-5.16-6.09-10-12.47c-1.71-2.28-4.43-8.28-7.31-9.11-3.93-1.13-6.52,7.21-7.64,9.57-3.43,7.2-6.65,14.54-10.59,21.48-1.12,2-2.72,5.83-4.82,7s-6.45-1-8.48-2.62c-5.48-4.29-7.37-11.89-8.5-18.4-.92-5.29-.49-11.39-2.22-16.48-.49-1.45-1.22-2.88-2.84-3.28a4.3,4.3,0,0,0-2.52.4c-4.23,1.25-8,3.84-12.41,4.91-7.29,1.76-15.23,1.55-21.92-2.09-5.79-3.16-12-9.79-11.85-16.89s12.32-9.24,17.73-10.23c6.82-1.24,14.79-2.07,21.61-5.26,22.12-10.3,23.68-39.64,27.12-60.38A642.83,642.83,0,0,1,185,241.38c4.2-12.94,8.95-27.58,23.41-31.85,6.64-2,13.77-1.85,20.63-1.87s13.46.15,20.17.69c26.53,2.14,52.31,11.74,64,37.42,10.95,24,8.93,52.25,8.86,78L322,347.17c0,6.34-.05,12.28,2.53,18.19a43.4,43.4,0,0,0,9.23,12.92c2.7,2.74,5.54,5.89,9.27,7.18,6.19,2.13,13.51,1.31,19.91,1.08,8.5-.31,17.25-.87,25.66.69,7.53,1.4,14.43,4.74,17,12.43,1,3,5.84,1.74,4.82-1.32-5.61-16.84-25.49-17.4-40.38-17-7.59.19-15.78,1.38-23.3-.05-4.07-.78-6.59-3.62-9.43-6.5-4.6-4.65-8.51-10.05-9.84-16.57-1.59-7.81-.45-16.74-.43-24.69q0-12.71.07-25.41c0-12.92-.2-25.87-2.13-38.66-3.83-25.4-16.26-47.85-40.69-58.26-11.83-5-24.68-7.11-37.44-8-13-.88-28.05-2.21-40.58,1.77s-18.88,14.73-23.16,26.36c-5.59,15.19-9.95,30.95-14,46.61q-6.26,24.21-10.61,48.87c-2.59,14.65-3.28,30.56-9,44.42-4.24,10.19-11.32,18.37-22.09,21.44-7.2,2.05-14.75,2.36-21.92,4.52-6.19,1.87-14.59,5.46-14.73,13.06-.21,11.13,9.65,20.59,19.53,23.86a37.35,37.35,0,0,0,19.71.53,51.59,51.59,0,0,0,9.76-3.27,45,45,0,0,0,4.71-2.33c-.12-.33-2.07-.24-2-.28-.47.72.94,6.28,1,7.26.36,3.42.75,6.85,1.38,10.23,1.28,6.94,3.63,14.35,9,19.23,3.91,3.55,11.61,7.37,16.17,3.16,5-4.64,8-12.31,10.91-18.33,1.79-3.71,3.52-7.46,5.28-11.18.64-1.33,4-6.05,3.78-7.38-.08-.47-2.55-.44-2.63-.17s1.56,2.19,1.81,2.53c1.58,2.18,3.18,4.35,4.82,6.49,3.27,4.27,6.63,8.48,10.13,12.57,6.74,7.86,14,15.83,22.76,21.54,4.64,3,12.88,7.1,17.93,2.54s2.17-14.85,1.1-20.35c-1.88-9.72-5.35-19.59-5.75-29.53-.33-8.34,8.46-25.26,18.54-18.93,8.58,5.38,15.95,14.47,19,24C281,443,287,452.18,296,458.65c3.21,2.29,12.59,9.9,14.61,2.77,1.5-5.33,0-12.23-.57-17.59-.82-8.25-1.85-16.48-2.52-24.74-.27-3.36-.52-6.74-.48-10.12,0-1.09.13-2.16.17-3.25a3.07,3.07,0,0,1,.23-1.08c.33-.67-.5,0,0-.05,3.58-.19,7.44,6.47,9.14,8.87,2.56,3.6,4.88,7.53,7.88,10.79,5.82,6.33,16.85,7.6,24.84,8.95,9.79,1.65,18.79,2.15,28.21-1.67a68.66,68.66,0,0,0,24.82-17.94c3.24-3.61,9.2-9.82,8.06-15.25C409.75,395.19,404.93,396.52,405.59,399.66Z"/><path d="M260.54,212.82c2.11-6,2.22-12.94,2.24-19.24a230.53,230.53,0,0,0-1.42-24.64c-.88-8.43-2-16.87-3.55-25.2-1-5.53-2.18-11.23-4.84-16.25-3.16-6-11.45-7.79-17.11-4.49-6,3.54-7.65,11.12-4.48,17.11,1.06,2-1-3.34-.25-.54.27,1,.62,2,.88,3,.72,2.72,1.27,5.49,1.78,8.25.61,3.27,1.11,6.56,1.6,9.85.21,1.45-.22-1.81.08.63.12,1,.25,1.93.36,2.89.24,2,.45,3.93.65,5.9.75,7.45,1.27,14.93,1.3,22.42,0,3.18-.14,6.34-.35,9.52-.23,3.39.55-1.61-.13.86-.3,1.1-.49,2.18-.87,3.26-2.25,6.36,2.55,13.68,8.73,15.38,6.91,1.89,13.12-2.35,15.38-8.74Z"/><path class="cls-1" d="M312.53,85c0,25.08-24.06,45.41-58.88,45.41S186.44,110.1,186.44,85s28.22-45.41,63-45.41S312.53,59.94,312.53,85Z"/><circle class="cls-2" cx="270.04" cy="85.02" r="28.33"/><circle class="cls-3" cx="284.11" cy="83.5" r="12.55"/><path class="cls-4" d="M293.82,292.6c0,17.92-17.33,32.45-42.41,32.45S203,310.52,203,292.6s20.33-32.46,45.4-32.46S293.82,274.67,293.82,292.6Z"/><path d="M297,55.66A14.92,14.92,0,0,0,310.18,37.4c-.79-3.11-5.61-1.79-4.82,1.33,1.36,5.41-2.7,11.45-8.35,11.93-3.18.28-3.21,5.28,0,5Z"/><path d="M285.5,49.12a14.92,14.92,0,0,0,13.16-18.26c-.78-3.12-5.6-1.8-4.82,1.33,1.36,5.4-2.7,11.44-8.34,11.93-3.19.27-3.22,5.27,0,5Z"/><path d="M273.33,44.5A14.93,14.93,0,0,0,286.5,26.24c-.78-3.12-5.61-1.8-4.82,1.33C283,33,279,39,273.33,39.5c-3.18.27-3.21,5.27,0,5Z"/></svg>