<svg id="Слой_1" data-name="Слой 1" xmlns="http://www.w3.org/2000/svg" viewBox="0 0 521 512"><defs><style>.cls-1,.cls-3{fill:#fff;}.cls-1,.cls-2{stroke:#000;stroke-miterlimit:10;stroke-width:4px;}</style></defs><title>Монтажная область 1</title><path d="M375.5,420c-3.95,3.95-16.93,8.34-22.35,7-6.8-1.63-27.32-3.71-32.59-8.3-5.74-5-13-12-19.55-8.18-5.19,3-5.19,10.88-9.61,15-5.15,4.76-13.64,2.25-19.25-1.95s-10.47-10-17.26-11.73c-8.69-2.27-17.61,2.8-24.3,8.79S218,433.89,209.8,437.56c-13.22,5.92-30.61-.43-36.89-13.48-1.16-2.4-2-5-3.65-7.07-3.81-4.79-11-5.51-16.88-3.73s-10.87,5.52-16.23,8.49c-9.16,5.06-20,7.9-30.19,5.42S86.79,416,86.2,405.54,93,385.14,103.33,387l4.06.06c11.29,6.49,25.37-.75,32.77-11.47s9.16-24.2,11.09-37.08A642.87,642.87,0,0,1,176.73,232c3.36-10.11,7.52-20.86,16.47-26.62,7.47-4.8,16.85-5.17,25.73-5.26,27.42-.27,57.73,2,77.12,21.37,20.42,20.44,21.62,52.63,21.54,81.53l-.13,45c0,12.24,7.28,20.55,16.54,28.55,9.85,8.51,26-6,36,11C370,387.5,384,411.5,375.5,420Z"/><path d="M373.73,418.23c-4.34,3.94-12.48,6.77-18.34,6.53-5.23-.21-10.81-1.77-15.95-2.71-5.49-1-12.46-1.74-17.11-5.08-5.29-3.8-9.83-9.8-16.93-10-6.36-.17-9.64,4.76-11.88,10-1.49,3.45-2.82,7.22-6.86,8.35-4.48,1.25-9.46-1.2-13-3.76-5.9-4.24-10.78-10.23-18.09-12.12-7.16-1.85-14.5.68-20.49,4.6-13.5,8.84-22.61,26.41-41.24,22.76a26.86,26.86,0,0,1-17.5-11.67c-4-6.3-5.22-12.73-13.39-14.7-7.11-1.71-14,1-20.12,4.51-8.45,4.83-16.55,9.89-26.55,10.59-9,.63-18.08-2.48-23.62-9.86-4.9-6.52-5.67-16.43.21-22.69,3.75-4,10.4-4.56,15.18-2.8a24.28,24.28,0,0,0,18.51-.24c14.54-6,21.47-20.85,24.54-35.38,3.92-18.56,6-37.48,10-56.05q6.33-29.14,15.35-57.62c2.63-8.32,5-17.09,9.7-24.55,5.56-8.91,14.14-12.63,24.35-13.44,16.15-1.27,33.48-.54,49.31,2.93,16,3.51,31.07,11.1,40.63,24.8,9.15,13.1,12.49,29.31,13.79,45,1.45,17.54.81,35.25.76,52.82,0,8.86-1.32,18.72.92,27.38,1.69,6.52,5.67,12.12,10.3,16.89,4,4.18,8.14,8.33,14.13,9.08,5.49.7,10.95-1,16.44-.45,10.06,1,14.6,13.09,17.22,21.46,1.44,4.6,3.35,11.41-.3,15.47-2.14,2.39,1.38,5.94,3.54,3.54,7.22-8,1.88-21-2-29.4-4.24-9.21-10.15-16.3-21.17-16.15-6,.08-13.05,2.39-18.35-1.49-6.38-4.65-12.63-12-14.82-19.61-1.31-4.57-1-9.32-1-14l0-16.61c0-10.18.15-20.37,0-30.56-.4-31.45-5.27-66.9-35.19-84.11-14.31-8.23-31.1-11-47.37-11.88-15.62-.87-36.35-3.14-49.05,7.91-5.9,5.14-9.38,12.45-12.09,19.64-3.64,9.71-6.56,19.75-9.43,29.7Q158.1,285.7,152.34,317c-1.88,10.17-3.26,20.41-5,30.59-1.6,9.33-3.84,18.89-9.33,26.77-4.86,7-13.27,13.08-22.11,12.66-3.31-.16-5.91-2-9-2.44a34.82,34.82,0,0,0-7.42-.2C85.4,385.64,80.72,403.1,86,414.24c7.31,15.54,26.16,19,41.22,14.15,9.25-3,16.64-10,25.87-12.7,4.34-1.29,10-1.3,13.5,2.06,3.13,3,4,8,6.56,11.5,7.86,11,23.43,16,36.14,11.23,7.58-2.87,13.35-8.74,19.05-14.27,6.62-6.41,15.86-14.64,25.93-12,8.57,2.26,13.68,10.81,21.64,14.37,5.77,2.58,13,3.07,17.71-1.76,5-5.08,5.52-18.69,15.62-13.69,6,2.95,9.63,8.45,16,10.66s13.33,3.15,20,4.28c5.25.89,9.93,2.11,15.26,1.1,5.82-1.12,12.28-3.39,16.74-7.43C379.66,419.6,376.11,416.07,373.73,418.23Z"/><path d="M215.33,209.79c11.7-16.25,11.06-36.28,8.34-55.19-1.38-9.62-2.65-19.55-7.43-28.18s-12.05-15-19.89-20.58-15.4,7.42-7.57,13c6.11,4.31,11.91,9.68,15.2,16.52,3.41,7.06,4.15,15.6,5.23,23.27,2.13,15.15,2.47,30.71-6.84,43.63-2.38,3.32-.54,8.33,2.69,10.27,3.76,2.25,7.91.57,10.27-2.69Z"/><path d="M268.5,206c-.88-16.28,1.59-32.25,4.84-48.15,2.17-10.64,3.29-31,16.63-33.71,9.46-1.93,5.46-16.39-4-14.47-18,3.67-22.7,23.12-25.92,38.47-4,19-7.62,38.33-6.57,57.86.52,9.6,15.53,9.66,15,0Z"/><circle class="cls-1" cx="161.04" cy="96" r="35.5"/><circle class="cls-2" cx="161.04" cy="96" r="22.15"/><circle class="cls-1" cx="172.04" cy="94.82" r="9.82"/><circle class="cls-1" cx="318.18" cy="95.22" r="35.5"/><circle class="cls-2" cx="318.18" cy="95.22" r="22.15"/><circle class="cls-1" cx="330.18" cy="95.04" r="9.82"/><path class="cls-3" d="M219.43,272.9l46.31-1.55a3.53,3.53,0,0,1,2.75.7,3.29,3.29,0,0,1,.68,1.81,26.46,26.46,0,0,1-36.33,28.25c-11.67-4.85-23.41-23.19-14.47-29Z"/></svg>