<svg id="Слой_1" data-name="Слой 1" xmlns="http://www.w3.org/2000/svg" viewBox="0 0 521 556"><defs><style>.cls-1,.cls-3,.cls-4{fill:#fff;}.cls-1,.cls-2,.cls-3{stroke:#000;stroke-miterlimit:10;}.cls-1{stroke-width:7px;}.cls-2,.cls-3{stroke-width:4px;}</style></defs><title>Монтажная область 4</title><path d="M457.37,422.22c1.95,6.44-27.44,42.29-57.08,40-8.31-.64-32.59-4.48-38.88-10-6.84-6-18-30.4-25.82-25.76-6.2,3.67,7.81,74.9,1.28,71.89-15.72-7.25-27.31-18.12-33.21-40.3-2.18-8.18-19.2-27-27.3-29.18-10.37-2.74-22.12,14.78-22.29,25.63-.25,16.64,15.24,56.33,5.46,60.77-15.78,7.15-48.79-34.89-63.53-56.19-1.82-2.63-20.07,47.11-27.35,46.52-29.83-2.42-20.86-53.3-27.25-49.71-10.92,6.12-23.89,9.55-36,6.55s-22.86-13.54-23.57-26.17,27.09-15.85,27.09-15.85c21.71-3.31,28.46-7.38,37.29-20.32s10.92-29.25,13.23-44.82a784.37,784.37,0,0,1,30.4-128.73c4-12.21,9-25.21,19.65-32.16,8.91-5.8,20.1-6.25,30.69-6.36,32.72-.32,68.88,2.37,92,25.82,24.36,24.71,25.8,63.6,25.7,98.52l-.15,54.32c0,14.79,8.68,24.83,19.73,34.5C389.21,411.46,447.82,390.8,457.37,422.22Z"/><path d="M455,422.88c.46,2.11-2.77,6.09-3.93,7.73a76,76,0,0,1-11.2,12.3c-9.72,8.76-22.3,16.53-35.73,16.92-11.08.32-23.52-2.48-33.94-6a20.46,20.46,0,0,1-11-8.12c-3.17-4.36-6-8.95-9.31-13.22-2.94-3.81-12.05-14.14-16.93-6.71-2.88,4.38-1.42,12.56-1.1,17.39.64,9.55,1.79,19.06,2.79,28.57.77,7.41,2.07,15.22,1.53,22.69,0,.28-.26,2.3-.31,2.27s.2-.25.2-.25l1.71-.43-.72-.35c-.67-.95-3.32-1.67-4.42-2.29a52.86,52.86,0,0,1-14.63-11.8,57.87,57.87,0,0,1-10.49-19.48c-1.72-5.27-3.21-9.59-6.49-14.15-5.53-7.69-13.84-18.26-23.3-21.27-10.89-3.46-20.06,9.07-23.65,17.61-4.18,9.93-1.68,20.16.52,30.28,2.3,10.63,6.11,22,5.73,32.95-.13,3.6-.82,6.09-4.85,6.07-4.27,0-8.43-2.64-11.84-4.95-10.27-7-18.8-16.74-26.71-26.19-4.2-5-8.23-10.18-12.12-15.43q-2.33-3.14-4.57-6.31c-.93-1.31-1.89-3.59-3.58-4.09-4.36-1.3-7.6,9.18-8.79,11.73-4,8.63-7.87,17.4-12.54,25.72-1.43,2.55-3.29,6.94-5.89,8.55-2.36,1.46-7.18-.92-9.54-2.53-14-9.51-9.85-29-13.93-42.9-.52-1.76-1.38-3.58-3.39-3.9-1.47-.24-2.61.63-3.87,1.27a61.63,61.63,0,0,1-13,5.05c-15.9,4.05-36-1.52-40.68-19.19-1.58-6,.45-9.36,5.73-12.21a49,49,0,0,1,13.09-4.37c8.62-1.83,17.91-2.42,26.61-6.23,27.25-11.9,29.08-47.91,33.19-73a785.25,785.25,0,0,1,26.85-111.88c4.89-15.32,10.26-33.66,27.13-39.45,8.17-2.8,17.07-2.7,25.6-2.73,7.43,0,14.87.13,22.29.65,31.42,2.21,62.71,12.66,77.72,42.55,14.38,28.63,12.21,63.07,12.13,94.18l-.08,29.1c0,7.95-.46,15.77,2.52,23.3,2.46,6.22,6.57,11.59,11.19,16.36,3.17,3.26,6.54,7.13,11,8.68,7.42,2.62,16.29,1.59,24,1.31,10.2-.38,20.7-1,30.78.93,9.09,1.76,17.27,6,20.29,15.32,1,3.05,5.82,1.74,4.82-1.33-6.68-20.56-31.41-20.68-49.31-20.15-8.8.26-18.54,1.72-27.21-.32-4.94-1.16-8.45-5.48-11.79-9.06-5.55-5.93-9.94-12.9-11-21.1-1.22-9.58-.23-19.81-.2-29.46q0-14.94.08-29.87c0-15.94-.29-31.95-2.83-47.72-2.39-14.85-7-29.7-15.63-42.15a75.88,75.88,0,0,0-33.65-26.56c-14.26-5.91-29.77-8.24-45.1-9.16-8.21-.49-16.45-.59-24.67-.46-8,.13-16.23.55-23.78,3.43-14.5,5.53-21.36,19.55-26.11,33.36-6.34,18.4-11.63,37.21-16.37,56.07Q165,307.25,159.9,336.6c-3.12,18.12-3.78,38.14-11.74,55-5.58,11.82-14,20.43-26.79,23.82-8.59,2.29-17.57,2.68-26.05,5.48-8.14,2.68-17.1,7.57-15.8,17.43,1.79,13.61,13.74,24.29,26.86,26.89a48.3,48.3,0,0,0,24.73-2,59.2,59.2,0,0,0,10-4.34c4.34-2.44,1.06-.39.84-.66,0,0-1.35-.46-1.23-.57a6.86,6.86,0,0,1,.31.87c-.36,2.55.93,6.51,1.2,9.12.43,4.14.92,8.29,1.71,12.39,1.59,8.26,4.51,17.16,11.17,22.76,4.94,4.16,13.51,8,18.63,2.46,5.93-6.39,9.5-15.52,13.17-23.29,2-4.19,3.89-8.41,5.86-12.6.81-1.71,1.62-3.43,2.49-5.11.31-.6,1.91-2.59,1.84-3.21,0,.32-2.59-.68-2.47.53.08.77,1.6,2.27,2.09,3q2.85,4,5.8,7.89c3.88,5.13,7.87,10.18,12,15.08,8,9.38,16.56,18.89,26.87,25.74,5.31,3.53,15.32,8.63,21,3s2.07-18.39.75-25c-2.3-11.6-6.45-23.52-6.68-35.41-.18-9.73,10.48-30.17,22.41-22.86,5.18,3.18,9.61,7.87,13.56,12.44,3.63,4.21,7.29,8.83,8.92,14.22,4,13.21,10.23,25,21.43,33.5,3.5,2.64,15.51,12.86,17.84,4.48,1.74-6.25,0-14.34-.64-20.62-1-9.93-2.19-19.84-3-29.78-.34-4.1-.64-8.22-.63-12.34,0-1.36,0-5.76.57-6.27,3.83-3.11,17,18.84,19.36,21.82,6.69,8.58,18.48,10.43,28.63,12.3,11.6,2.15,22.72,3.4,34-.85,11.69-4.39,22.14-12.27,30.5-21.47,3.89-4.27,11.66-12.18,10.22-18.73C459.09,418.41,454.26,419.74,455,422.88Z"/><path class="cls-1" d="M181.59,107c-7.16,38.49,23.61,76.5,76.54,86.34s108-12.22,115.12-50.72S343.3,65,290.37,55.14,188.74,68.53,181.59,107Z"/><ellipse class="cls-2" cx="246.17" cy="119.03" rx="44.24" ry="43.8" transform="translate(84.16 339.31) rotate(-79.47)"/><ellipse class="cls-3" cx="225.22" cy="112.73" rx="19.6" ry="19.41" transform="translate(73.23 313.56) rotate(-79.47)"/><path class="cls-4" d="M225.45,293.89c0,17.73-17.33,32.11-42.41,32.11s-48.41-14.38-48.41-32.11S155,261.77,180,261.77,225.45,276.15,225.45,293.89Z"/><path d="M214.94,60.1c-9.29-2.57-14.59-13.7-10.56-22.53,1.33-2.91-3-5.46-4.31-2.53-5.35,11.73.91,26.38,13.54,29.88,3.1.86,4.43-4,1.33-4.82Z"/><path d="M234.3,53.3c-9.29-2.57-14.58-13.7-10.55-22.53,1.33-2.91-3-5.45-4.32-2.53C214.08,40,220.34,54.63,233,58.13c3.11.86,4.43-4,1.33-4.83Z"/><path d="M254.11,49.65c-9.29-2.57-14.59-13.7-10.56-22.53,1.33-2.91-3-5.45-4.31-2.53-5.35,11.73.91,26.38,13.54,29.88,3.1.87,4.43-4,1.33-4.82Z"/></svg>