<svg id="Слой_1" data-name="Слой 1" xmlns="http://www.w3.org/2000/svg" viewBox="0 0 522 556"><defs><style>.cls-1{fill:#fff;}.cls-2{stroke:#000;stroke-miterlimit:10;stroke-width:4px;}</style></defs><title>Монтажная область 5</title><path d="M484,452c-5.37,5.51-47.23-38.84-60-49-7.45-5.93-27.14-21.75-34.31-28.16-7.81-7-17.67-16.8-26.61-11.44C356,367.65,320.43,472.29,314.41,478c-7,6.65,2.21-77.08,0-97-1.06-9.58-4.86-13.34-14.1-15.81-11.83-3.17-24,3.91-33.08,12.29S238.16,493.87,227,499c-18,8.27-29.73-98.46-38.28-116.7-1.57-3.34-2.71-7-5-9.87-5.19-6.69-15-7.7-23-5.22s-14.8,7.72-22.09,11.86c-12.47,7.08-54.19,140.39-68,136.93s-8.87-148,0-159.6C83.29,340,85.19,339.4,92,336h15.5c32.5,2.5,26.58-6.47,36.65-21.44s12.46-33.82,15.1-51.82c7.4-50.51-11.91-119.59,3.75-168.07,4.56-14.12,9.81-36,22-44,10.16-6.71,36-32,58.93-36C274.7,9.3,355.62,31.55,382,58.67c27.8,28.57,3.75,114.07,3.65,154.45l-.18,62.81c0,17.1,9.9,28.72,22.51,39.9,13.41,11.89,28.41,8.42,42,32.17C450,348,495.57,440.12,484,452Z"/><path d="M482.23,450.23c.79-.68.27,0-.53-.5-1-.66-2.24-1.1-3.29-1.75a78.34,78.34,0,0,1-8.73-6.56c-7.31-6.08-14.24-12.62-21.14-19.16-12.64-11.95-25.47-23.09-39-34.06-8.56-7-16.7-14.43-25.24-21.39-5.93-4.83-16.76-11.57-23.73-4.52-2.77,2.79-4.37,7.32-6,10.82-2.95,6.47-5.63,13.06-8.27,19.66-6.64,16.57-12.91,33.29-19.36,49.94-2.72,7-5.46,14.09-8.37,21.06-1,2.49-2.1,5-3.25,7.42-.59,1.27-2.15,3.19-2.37,4.55-.11.66-.37.17-.19.35-.22-.22,2.64,0,2.27.44,0-.06-.26-.37-.21-.68.28-1.74-.53-4.42-.59-6.23-.26-7.44.1-14.9.43-22.32.79-17.72,2.17-35.43,2.49-53.17.12-6.67.55-14.15-2-20.46-3.68-9.3-15.37-12.7-24.55-11.49-6.43.85-12.46,3.8-17.73,7.48-3.11,2.17-6.7,4.52-8.86,7.72-2.57,3.82-3.93,8.68-5.34,13-10.27,31.55-15.43,64.78-27.22,95.83-1,2.69-3,9.19-5.52,10.45s-5.15-3-6.35-5c-7.47-13-10.23-29.32-13.42-43.76-3.7-16.77-6.68-33.69-10.53-50.42a95.42,95.42,0,0,0-4.42-15.4c-2.06-4.94-4-10.32-8.22-13.84a22.21,22.21,0,0,0-14.68-4.72c-6.16.1-11.92,2.32-17.28,5.22-4.78,2.58-10.29,5.38-14.52,8.78-2.83,2.27-4.67,5.87-6.36,9-6.74,12.49-11.9,25.9-17.24,39C106.29,442,99.78,458.64,92.73,475c-5,11.73-9.94,24.79-17.77,35a18.79,18.79,0,0,1-3,3.18c-.9.74-.79.19-.67.33-1.89-2.39-2.73-6.14-3.39-9.37-2.78-13.81-3-28.28-3.22-42.32-.29-17.84.13-35.71,1.15-53.52.79-14,1.62-28.17,4.34-41.92.89-4.53,1.83-7.62,4.66-11.23,4.85-6.2,9.8-13.12,17.22-16.4,1.09-.48-.06-.22.3-.29a9.62,9.62,0,0,1,1.78,0h5.67c3.18,0,6.35-.06,9.52.13,8,.47,18.48,1.42,25.32-3.83,4.79-3.67,6.49-9.89,9.29-15s6.2-10,8.52-15.5a105.39,105.39,0,0,0,5.77-19.54c5.5-26.8,5.9-53.34,4.16-80.55-1.78-27.8-5-55.94-2-83.79,1.32-12.49,4.77-24.23,8.55-36.15,3.52-11.13,7.55-24.28,17.41-31.46,17.46-12.72,34.14-30.1,55.82-35.23,8-1.89,16.53-1.39,24.63-.61a223.72,223.72,0,0,1,31.35,5.57c21.72,5.29,43.48,12.68,63,23.78,7.53,4.29,15.46,9.28,21,16.08s8.06,15.8,9.45,24.36c6.91,42.74-8.19,85.62-8.32,128.3q-.08,25-.14,50c0,13.75.47,25.68,8.84,37.2,6.48,8.91,15,17.3,25,22.24s19.41,8.62,26.45,17.73c6.35,8.24,10.22,18.57,14.48,28,7.08,15.59,13.85,31.38,19.34,47.61a139.82,139.82,0,0,1,5.63,20.48c.54,3,1.95,9.22-.46,11.88-2.15,2.38,1.37,5.93,3.54,3.54,2.92-3.23,2.82-8,2.41-12.11a102.29,102.29,0,0,0-4.68-20.2c-5.21-16.56-12-32.63-19.09-48.47-3.91-8.77-7.7-17.77-12.25-26.25a52.26,52.26,0,0,0-24.47-22.63c-4.28-2-8.7-3.76-12.75-6.25-5.48-3.35-10.24-8.16-14.53-12.9-4.7-5.17-8.74-11.08-10.8-17.82-2.28-7.44-1.62-15.31-1.6-23,0-17.16,0-34.33.14-51.49.21-20.9,4.21-41.75,6.69-62.46,2.62-22,5.16-45,1.06-66.92-1.56-8.32-4.35-16.69-9.6-23.44s-12.62-11.76-19.81-16.09c-19-11.48-40.62-19.11-62-24.73-18.27-4.8-38.51-9.33-57.52-7.27C224.61,14.16,206.28,31,189.4,44.29c-3.38,2.67-7.21,4.92-10.21,8a48.83,48.83,0,0,0-9.1,14.25,208.68,208.68,0,0,0-11.28,33.61c-6.82,26.58-4.85,54.82-3,81.89,1.91,28.05,4.53,56.15.44,84.12-2.14,14.63-4.37,29.85-11.68,42.94-2.31,4.13-5,7.92-7,12.19-1.23,2.57-2.3,5.39-4.08,7.65-5.7,7.23-18.15,4.78-26,4.54-3-.09-6.11,0-9.15,0-2.78,0-5.64-.42-8.22.66-6.87,2.89-11.74,8.61-16.31,14.28-3.69,4.59-6.46,8-7.83,13.63-3.09,12.8-3.87,26.35-4.75,39.45q-1.83,27.11-1.64,54.3c.11,15.33.41,30.89,2.83,46.06.76,4.82,2.46,18.56,10.3,16.46,3.34-.89,5.77-4.54,7.6-7.2a119.24,119.24,0,0,0,8.64-15.66c14.82-30.63,25.69-63,39.63-94a143.67,143.67,0,0,1,7.85-15.7c3.51-5.77,9-8,15.06-11.52,6.39-3.69,13.63-6.86,21.18-5.46,8.17,1.52,11.14,7.94,14,14.95A101.32,101.32,0,0,1,191,399.17c3.92,17.12,7,34.43,10.78,51.57,3.23,14.46,6.14,30.72,13.73,43.67,4.41,7.53,12.07,10.55,17,1.85,6.92-12.22,10-27.26,13.66-40.68,4.79-17.61,9.09-35.35,14.11-52.89a167.91,167.91,0,0,1,6-18.51C269.4,376.71,277,372,284.46,369c6.89-2.75,15-2.94,21.51,1,4.47,2.72,5.67,7.55,6.08,12.48.57,6.87.17,13.88-.1,20.76-.72,18.51-2.18,37-2.63,55.5-.06,2.26-1.29,28.21,6.86,21,2.47-2.19,3.78-6.52,5.05-9.42,2.77-6.33,5.31-12.75,7.83-19.18,6.62-16.87,13-33.85,19.6-50.71,2.9-7.35,5.82-14.69,9-21.92,1.72-3.93,3.5-9.41,6.34-12.55s9-1,12.84,1.47c5.3,3.4,9.73,8.05,14.5,12.12,8.56,7.3,17.34,14.34,26.11,21.37,13.38,10.72,25.33,23,38,34.58,6,5.46,12,11,18.72,15.61,3.05,2.1,8.1,5.68,11.63,2.63C488.21,451.66,484.66,448.14,482.23,450.23Z"/><circle class="cls-1" cx="233.93" cy="121.73" r="35.5"/><circle class="cls-2" cx="233.93" cy="121.73" r="22.15"/><circle class="cls-1" cx="243.93" cy="120.54" r="9.82"/><circle class="cls-1" cx="324.29" cy="121.73" r="35.5"/><circle class="cls-2" cx="324.29" cy="121.73" r="22.15"/><circle class="cls-1" cx="335.29" cy="121.54" r="9.82"/><path class="cls-1" d="M241.31,208.72c21.65-1.21,46.09-2.6,67.74-3.82,1.43-.08,3.05,0,4,1.61a10.32,10.32,0,0,1,1,4.17c1.92,21.27-3.89,43.93-14.66,57.18s-26.07,16.55-38.62,8.35c-17-11.15-34.12-53.5-21-66.92Z"/></svg>