<svg id="Слой_1" data-name="Слой 1" xmlns="http://www.w3.org/2000/svg" viewBox="0 0 512 556"><defs><style>.cls-1,.cls-3{fill:#fff;}.cls-1,.cls-2{stroke:#000;stroke-miterlimit:10;stroke-width:4px;}</style></defs><title>Монтажная область 6</title><path d="M385,432.28c-3.94,5.52-16.93,11.66-22.35,9.83-6.79-2.29-27.32-5.19-32.59-11.6-5.73-7-13-16.8-19.55-11.43-5.19,4.25-5.19,15.2-9.61,20.91-5.15,6.65-13.63,3.14-19.25-2.74s-10.47-13.91-17.26-16.39c-8.69-3.17-17.61,3.92-24.3,12.29s-12.59,18.54-20.79,23.67c-13.22,8.28-30.6-.6-36.89-18.84-1.16-3.35-2-7-3.65-9.87-3.81-6.69-11-7.71-16.87-5.22s-10.88,7.72-16.24,11.86c-9.16,7.08-20,11-30.19,7.58S96.29,426.68,95.7,412.07s6.84-28.5,17.14-25.9l4,.09c11.3,9.06,25.37-1.05,32.78-16s9.15-33.82,11.09-51.82a1203.1,1203.1,0,0,1,25.48-148.86c3.35-14.12,7.51-29.15,16.47-37.19,7.46-6.7,16.85-7.22,25.72-7.35,27.43-.37,57.74,2.74,77.12,29.86,20.42,28.56,21.62,73.53,21.54,113.91L327,331.61c0,17.1,7.27,28.71,16.53,39.89,9.86,11.9,26-8.38,36,15.37C379.5,386.87,393.5,420.41,385,432.28Z"/><path d="M383.23,430.51c-4.28,5.47-13.54,10.64-20.57,9-6.8-1.61-13.73-3.13-20.38-5.27-3.17-1-6.74-2.16-9.33-4.35-3.41-2.88-5.69-7.06-9-10.11-5-4.56-11.73-7-16.67-.9-4.7,5.77-3.66,18-10.63,21.58-9.17,4.71-18.35-11.62-23.52-16.62-16.07-15.55-31.48,2.89-41.08,15.91-5.57,7.55-12.31,17.19-22.63,17.69-8.82.42-16.62-5.63-21.1-12.79-4.68-7.51-4.68-18.78-13.05-23.56-7.39-4.22-15.43-.74-21.61,3.92-8.9,6.71-17,15.38-28.91,16.07-10.51.61-18.72-6.28-23.13-15.34-4.55-9.34-5-22.1.4-31.22,2.44-4.12,5.38-6.22,10.16-5.92.89.06,1.8.06,2.69.14,2.11.17,2,.81,4.12,1.81,16.13,7.74,30-11.38,35.09-24.08,8.27-20.49,8.55-43.82,11.19-65.49q4.56-37.27,11.44-74.22c4.29-23.06,8.49-46.61,15.24-69.1,2.87-9.56,6.9-20.55,15.91-26,8.34-5,19.23-4.31,28.61-4.14,17.43.31,35.41,2.87,50.29,12.57,34.79,22.69,37.06,72.66,37.72,109.87.42,23.6.07,47.23,0,70.84,0,10.38-.32,20.5,3.46,30.34a74.84,74.84,0,0,0,13.32,21.56c3.76,4.38,8.36,5.73,14,5.26,6-.5,12.38-2.41,17.27,2.37,3.44,3.37,5.09,8.34,6.66,12.81a119.51,119.51,0,0,1,5.12,18.68c1.09,6.08,2.12,13.73-1.49,19.19-1.77,2.69,2.55,5.2,4.32,2.52,7.12-10.79,1.49-27.85-2.17-38.92-3.24-9.8-7.55-21.76-19.55-22.48-5.58-.34-12.73,2.85-17.84-.29-3.33-2.05-5.87-6.44-8-9.57A58.74,58.74,0,0,1,332,347.79c-3.83-11.43-2.55-24-2.52-35.81l.07-39.26c.05-21.76,0-43.6-3.05-65.18-2.71-19.36-7.91-39.31-19.77-55.22-11.09-14.88-27.28-23.85-45.32-27.39a146.14,146.14,0,0,0-26.33-2.42c-9.24-.11-19.22-.39-27.74,3.75-18.66,9.09-22.09,36-26.15,53.85q-8.55,37.66-14.63,75.85c-4,24.84-6.71,49.77-9.68,74.73-1.39,11.63-3.18,23.53-7.66,34.43-3.7,9-11.18,21.1-22,22-4.33.37-6.74-2.69-10.53-3.4a29.3,29.3,0,0,0-7.82-.27c-7.68,1-12.14,8.8-14.1,15.53-4.82,16.54,1.83,38.57,18.92,45.3,9.47,3.73,19.87,1.07,28.29-4,8.19-4.95,17.78-18.6,28.46-15.83,6.55,1.7,7.64,8.68,9.58,14.16a41.06,41.06,0,0,0,6.58,12.13c4.8,6,11.65,10.63,19.43,11.5,20.75,2.33,28.94-22.07,41.55-33.53,4.11-3.73,9.67-7.43,15.48-5.68,5.44,1.65,9.24,7.12,12.73,11.27,4.93,5.86,11.93,13.4,20.55,11.5,8.23-1.82,9.86-11.31,12.09-18.05,1.87-5.62,5.1-10.07,10.95-5.41,3.74,3,6.11,7.16,9.45,10.48,4.88,4.85,12.91,6.59,19.33,8.21,5.71,1.44,12.85,4.41,18.78,3.72,7.13-.83,15.39-5,19.85-10.73C388.74,431.55,385.22,428,383.23,430.51Z"/><circle class="cls-1" cx="170.54" cy="116.14" r="35.5"/><circle class="cls-2" cx="170.54" cy="116.14" r="22.15"/><circle class="cls-1" cx="181.54" cy="114.96" r="9.82"/><circle class="cls-1" cx="318.68" cy="116.37" r="35.5"/><circle class="cls-2" cx="318.68" cy="116.37" r="22.15"/><circle class="cls-1" cx="330.68" cy="116.18" r="9.82"/><path class="cls-3" d="M222.93,271l46.31-1.54a3.48,3.48,0,0,1,2.75.7,3.26,3.26,0,0,1,.68,1.8,26.46,26.46,0,0,1-36.32,28.25c-11.68-4.84-23.42-23.18-14.48-29Z"/></svg>