<svg id="Слой_1" data-name="Слой 1" xmlns="http://www.w3.org/2000/svg" viewBox="0 0 521 512"><defs><style>.cls-1,.cls-3{fill:#fff;}.cls-1,.cls-2{stroke:#000;stroke-miterlimit:10;stroke-width:4px;}</style></defs><title>Монтажная область 3</title><path d="M399.57,451.59c-3.95,3.94-16.93,8.34-22.36,7-6.79-1.63-27.31-3.71-32.58-8.3-5.74-5-15.09-25.16-21.65-21.32-5.2,3-3.09,24-7.51,28.1-5.15,4.76-13.64,2.25-19.26-2S280.12,432.77,273.33,431c-8.69-2.27-12,15.22-18.67,21.21s-12.59,13.27-20.79,16.94c-13.23,5.92-21.6-.1-27.89-13.15-1.16-2.39-4.14-25.78-10-24s-30.41,18.39-35.76,21.35c-9.16,5.07-20,7.91-30.2,5.43s-19.16-11.2-19.75-21.66S133,424,133,424c18.19-2.74,23.85-6.1,31.25-16.82s9.15-24.2,11.09-37.08A642.23,642.23,0,0,1,200.8,263.55c3.35-10.1,7.51-20.85,16.47-26.61,7.47-4.8,16.85-5.17,25.72-5.26,27.43-.27,57.74,2,77.12,21.37,20.42,20.44,21.63,52.63,21.55,81.53l-.13,44.95c0,12.25,7.27,20.56,16.54,28.56C367.92,416.6,408.07,443.09,399.57,451.59Z"/><path d="M397.8,449.82c-11.3,10.26-28.6,5.42-41.67,2.3-3-.71-6.51-1.39-9.08-3.12s-4.34-4.76-6.1-7.29c-3.39-4.86-6.84-11.14-12-14.32-12-7.37-12.24,14.7-13.15,20.94-.43,2.93-.63,6-3.24,7.7-4.48,2.91-11.37,0-15.09-3.08-5.38-4.46-9.08-11.13-13.6-16.41-3.16-3.7-7.5-8.83-13-8.16-5.86.72-9,7.25-11.42,11.86-1.6,3-3.08,6.24-5.28,8.86-2.89,3.45-6.66,6.53-10,9.6-6.42,6-16.5,13.48-25.65,8.83-12.3-6.25-10.81-21.35-15.61-32.16-1.65-3.7-4.17-6.93-8.55-5.46-5,1.7-9.79,5.2-14.27,8-12.76,7.91-25.82,18.95-41.54,19.3-10.68.24-22.23-5.63-25.24-16.55-2.07-7.51,4.25-10.27,10.46-12.14,10.62-3.21,22.4-2.44,32.15-9,14.29-9.62,18.58-28,21-43.87,3.57-23.19,7.91-46.19,13.74-68.94q4.42-17.24,9.8-34.21c3.11-9.81,5.88-21,12.86-28.87,7.79-8.79,19.4-9.32,30.36-9.41a226.53,226.53,0,0,1,28.65,1.28c19.47,2.33,39.24,9.21,51.28,25.56,11.34,15.39,14.24,35.19,15.13,53.8.49,10.49.33,21,.3,31.49,0,11.72-.86,23.77,0,35.47,1.08,14.71,12.61,24.76,23.59,33.15,10.45,8,21.62,15.69,30.5,25.49,1.41,1.55,6.76,7,4.59,9.4s1.38,5.94,3.53,3.54c7-7.78-6.74-19-11.8-23.49-9.47-8.4-20.08-15.35-29.7-23.55-7.74-6.6-15.16-14.6-15.77-25.28-.72-12.79,0-25.83.07-38.64.06-19.91.46-40.3-4.86-59.67-5.07-18.49-16.24-34.34-33.6-43.07s-37.41-10.36-56.54-10.49c-10-.07-21-.46-30.24,4-8.54,4.13-13.68,12.23-17.21,20.72-9.26,22.26-15,46.69-20.26,70.15q-4.23,18.78-7.32,37.78c-1.76,10.82-2.76,22-6.29,32.41-2.67,7.91-7.55,16.51-14.75,21.19-6.2,4-14,5.12-21.14,6.21-8.09,1.23-22.68,3.9-24.06,13.94-1.08,7.82,4.72,16,10.62,20.39,8,6,18.09,7.28,27.68,5.34,14.64-3,27-13.33,39.45-20.91,2.75-1.67,5.51-3.35,8.38-4.81,2.42-1.23,2.65-1.6,4,.83,2.88,5.28,3.56,11.84,4.9,17.62,3.22,13.9,16.48,23.42,30.28,18.11,9.16-3.52,16.53-11.31,23.28-18.17,5.13-5.21,6.86-12.52,11.46-18.05,5.53-6.65,11.74,3.19,15.17,7.51,4.32,5.42,8.17,11.86,14.29,15.44,5.9,3.46,15.89,5.59,20.67-.93,3.48-4.74,3-12.51,3.74-18.05.25-1.88.4-7.14,2.14-8.39,2.18-1.57,5.13,2.48,6.4,4,4.38,5.21,7.38,12.1,12.57,16.59,5,4.32,13.1,5.23,19.32,6.37s13.17,3.35,19.41,2.77c6.75-.62,14.65-3.24,19.74-7.87C403.72,451.19,400.18,447.66,397.8,449.82Z"/><path d="M224.15,242.76c8-19.24,2.08-39.6-5.33-58-3.53-8.78-7-17.54-13.72-24.45-6.43-6.64-14.61-11-23.06-14.42-3.78-1.55-8.21,1.68-9.23,5.24-1.23,4.28,1.51,7.69,5.24,9.22,6.44,2.65,12.83,6.36,17.46,11.65,4.92,5.63,7.49,13.2,10.16,20.06,5.93,15.17,10.59,31,4,46.72-1.57,3.76,1.7,8.21,5.24,9.22,4.31,1.23,7.67-1.51,9.23-5.24Z"/><path d="M325.67,256.3c-.88-16.29,1.59-32.25,4.84-48.16,2.17-10.63,3.29-31,16.63-33.71,9.45-1.92,5.45-16.38-4-14.46-18,3.66-22.69,23.12-25.92,38.46-4,19-7.61,38.34-6.56,57.87.52,9.6,15.52,9.66,15,0Z"/><circle class="cls-1" cx="145.66" cy="144.29" r="35.5"/><circle class="cls-2" cx="145.66" cy="144.29" r="22.15"/><circle class="cls-1" cx="156.12" cy="140.67" r="9.82"/><circle class="cls-1" cx="375.35" cy="145.52" r="35.5"/><circle class="cls-2" cx="375.35" cy="145.52" r="22.15"/><circle class="cls-1" cx="387.35" cy="145.33" r="9.82"/><path class="cls-3" d="M289.63,333.2l-46.24,3a3.53,3.53,0,0,1-2.77-.61,3.22,3.22,0,0,1-.73-1.78,26.46,26.46,0,0,1,35.39-29.42c11.82,4.47,24.15,22.42,15.4,28.49Z"/><path d="M278.77,238c2.06-7.56,2.07-15.84,2.06-23.62,0-10.33-.56-20.66-1.36-31s-1.87-20.45-3.29-30.61c-.85-6-1.4-12.7-3.72-18.39-1.53-3.73-5-6.42-9.23-5.24-3.54,1-6.78,5.44-5.24,9.23,2.21,5.4,2.78,11.72,3.59,17.44,1.28,9.05,2.18,18.37,2.89,27.57.77,10,1.32,19.93,1.36,29.91,0,4.15,0,8.3-.32,12.44-.08,1.08-.17,2.16-.27,3.23,0,.33-.33,2.48-.09.89a38.55,38.55,0,0,1-.84,4.12c-2.55,9.32,11.92,13.3,14.46,4Z"/><path class="cls-1" d="M310.87,93.51c0,25.08-17.33,45.41-42.4,45.41s-48.41-20.33-48.41-45.41a45.41,45.41,0,1,1,90.81,0Z"/><circle class="cls-2" cx="265.47" cy="93.51" r="28.33"/><circle class="cls-1" cx="279.54" cy="92" r="12.55"/></svg>