<?xml version="1.0" encoding="utf-8"?>
<!-- Generator: Adobe Illustrator 22.1.0, SVG Export Plug-In . SVG Version: 6.00 Build 0)  -->
<svg version="1.1" id="Слой_1" xmlns="http://www.w3.org/2000/svg" xmlns:xlink="http://www.w3.org/1999/xlink" x="0px" y="0px"
	 viewBox="0 0 521 556" style="enable-background:new 0 0 521 556;" xml:space="preserve">
<style type="text/css">
	.st0{fill:#06662F;}
	.st1{fill:#108A37;}
	.st2{fill:#FFFFFF;stroke:#06662F;stroke-width:4;stroke-miterlimit:10;}
	.st3{fill:#010202;stroke:#010202;stroke-width:4;stroke-miterlimit:10;}
	.st4{fill:#FFFFFF;stroke:#010202;stroke-width:4;stroke-miterlimit:10;}
	.st5{fill:#FFFFFF;}
	.st6{fill:#0B662F;}
	.st7{fill:#3C9235;}
	.st8{fill:#5EB130;}
	.st9{fill:#FFFFFF;stroke:#3C9236;stroke-width:4;stroke-miterlimit:10;}
	.st10{fill:#193A1D;}
	.st11{fill:#225527;}
	.st12{fill:#FFFFFF;stroke:#1B3A1F;stroke-width:5;stroke-miterlimit:10;}
	.st13{fill:#FFFFFF;stroke:#193A1D;stroke-width:7;stroke-miterlimit:10;}
	.st14{fill:#A2C617;}
	.st15{fill:#78942A;}
	.st16{fill:#FFFFFF;stroke:#79942A;stroke-width:4;stroke-miterlimit:10;}
	.st17{fill:#79942A;}
	.st18{fill:#5FB669;}
	.st19{fill:#3B7F40;}
	.st20{fill:#FFFFFF;stroke:#3B7F40;stroke-width:5;stroke-miterlimit:10;}
	.st21{fill:#18A638;}
	.st22{fill:#09672F;}
	.st23{fill:#FFFFFF;stroke:#0E672F;stroke-width:7;stroke-miterlimit:10;}
	.st24{fill:#0E672F;}
</style>
<g>
	<path class="st21" d="M457.4,422.2c-9.5-31.4-68.2-10.8-79.9-21c-11.1-9.7-19.8-19.7-19.7-34.5c0-18.1,0.1-36.2,0.1-54.3
		c0.1-34.9-1.3-73.8-25.7-98.5c-23.1-23.4-59.3-26.1-92-25.8c-10.6,0.1-21.8,0.6-30.7,6.4c-10.7,7-15.7,19.9-19.7,32.2
		c-3.8,11.7-7.4,23.4-10.6,35.3c0.3,0,0.6,0,0.8,0c25.1,0,45.4,14.4,45.4,32.1S208.1,326,183,326c-6.3,0-12.5-0.9-18.2-2.5
		c-2,10.6-3.8,21.2-5.4,31.8c-2.3,15.6-4.4,31.9-13.2,44.8s-15.6,17-37.3,20.3c0,0-27.8,3.2-27.1,15.9c0.7,12.6,11.4,23.2,23.6,26.2
		c12.1,3,25.1-0.4,36-6.6c6.4-3.6-2.6,47.3,27.2,49.7c7.3,0.6,25.5-49.1,27.4-46.5c14.7,21.3,47.7,63.3,63.5,56.2
		c9.8-4.4-5.7-44.1-5.5-60.8c0.2-10.9,11.9-28.4,22.3-25.6c8.1,2.1,25.1,21,27.3,29.2c5.9,22.2,17.5,33,33.2,40.3
		c6.5,3-7.5-68.2-1.3-71.9c7.8-4.6,19,19.7,25.8,25.8c6.3,5.5,30.6,9.4,38.9,10C429.9,464.5,459.3,428.7,457.4,422.2z"/>
	<g>
		<path class="st22" d="M459.8,421.6c-7.7-23.6-38.3-20.5-57.9-19.9c-5.2,0.2-10.5,0.5-15.6-0.1c-5.5-0.6-8.2-3-12.2-6.9
			c-6.7-6.5-12.4-14.3-13.6-23.8c-1.4-10.8-0.2-22.4-0.2-33.3c0.1-35.9,3.8-77.1-14.5-109.6c-18.1-32.2-54.4-41-88.8-42.2
			c-19.2-0.7-43.2-2.7-56.8,13.7c-5.8,7.1-9.2,15.8-12.1,24.3c-4.2,12.3-7.8,24.8-11.3,37.4c-0.4,1.5,0.8,3.2,2.4,3.2
			c18.6-0.3,48.1,10.9,43.3,34.5c-5.1,24.5-37.4,27.6-57,22.3c-1.2-0.3-2.8,0.4-3.1,1.7c-2.5,13.4-4.5,26.8-6.7,40.2
			c-1.9,11.9-4.3,24.1-10.8,34.4c-4.5,7.1-10,13.1-18,16.2c-6.5,2.6-13.6,3.5-20.5,4.6c-9.3,1.5-26.7,5.2-27.2,17.2
			c-0.3,8.7,5.3,17.3,11.8,22.6c8.3,6.7,18.9,8.9,29.3,7.6c5.3-0.7,10.5-2.2,15.4-4.3c0.6-0.2,6.8-3.1,6.7-3.3
			c0.1,0.2-2.4,0.1-1.9-0.4c0,0,0.2,0.5,0.2,0.5c-0.3,0.9,0.7,3.7,0.8,4.7c0.3,2.7,0.5,5.5,0.9,8.2c1.3,11.2,3.5,24.4,12.8,32
			c3.6,2.9,10.6,6.6,15.3,4.6c3.6-1.6,6.1-6.3,8-9.6c6.4-11,10.9-23.1,16.8-34.4c0.3-0.5,1.1-1.5,1.2-2.1c0-0.1,0.3-0.7,0.3-0.5
			c0,0,0-0.1,0.1-0.1c0.7-0.7-0.2-0.7-2.8,0.1c-0.2,0.8,2.5,3.5,3,4.2c1.3,1.9,2.7,3.7,4.1,5.6c5.5,7.4,11.3,14.6,17.5,21.5
			c5.7,6.4,11.8,12.6,18.6,17.9c4.8,3.7,10.6,7.6,16.8,8.1c14,1.1,11-15.7,9.4-24.5c-1.5-8.5-3.7-16.9-5.4-25.4
			c-1.6-7.9-2.9-15.3,0.5-23c3.2-7.1,11-18.1,19.8-13c7.1,4.1,13.3,11.3,18,17.8c5.2,7.2,6.4,15.9,10.5,23.8
			c4,7.7,9.7,14.4,16.7,19.5c3.3,2.4,6.9,4.5,10.6,6.2c1.7,0.8,3.3,1.5,4.9,0.1c2.2-1.9,1.8-6.4,1.7-9c-0.3-12.8-2.3-25.6-3.5-38.4
			c-0.6-5.8-1.1-11.7-1.1-17.6c0-1.7-0.1-3.6,0.3-5.4c0.1-0.3,0.4-1.4,0.3-1.3c0.1-0.1,1.5,0.1,2.5,0.6c6.4,3.3,10.6,12.6,14.7,18.3
			c3.8,5.3,7.4,8.7,13.6,10.9c8.3,3,17.1,4.5,25.8,5.7c7.6,1,14.9,1.1,22.4-1.2c15.6-4.8,30-16.4,39.3-29.7
			C457.5,430,460.7,425.6,459.8,421.6c-0.7-3.1-5.5-1.8-4.8,1.3c0.8,3.5-5.8,10.3-7.8,12.6c-5.8,6.6-12.5,12.4-20.1,16.8
			c-7.7,4.6-16.4,7.8-25.5,7.4c-7.8-0.3-15.7-1.9-23.3-3.7c-7.2-1.7-13.9-3.5-18.5-9.6c-4.4-5.9-8.1-12.5-13.2-17.9
			c-2.9-3.1-8.1-7.3-12.4-4.1c-2.6,1.9-2.6,5.9-2.7,8.7c-0.4,12,1.6,24.2,2.8,36.1c0.6,6.1,1.3,12.2,1.7,18.3
			c0.1,2.1,0.2,4.2,0.1,6.2c-0.1,1.4-1,3.4,0.7,2.3c1.1-0.7,0.4-0.4-1-1.1c-0.9-0.5-1.8-0.9-2.8-1.4c-1.8-1-3.5-2-5.2-3.2
			c-3.7-2.5-7.1-5.5-9.9-8.9c-3-3.5-5.4-7.5-7.4-11.7c-2.2-4.7-3.2-9.8-5.2-14.5c-2.8-6.7-8.1-12.6-13-17.7
			c-4.3-4.4-9.9-10.2-16.2-11.3c-7.3-1.3-13.7,4.7-17.6,10.1c-4.6,6.3-7.3,13.7-6.7,21.5c1.2,15.5,7.2,30.2,8.4,45.6
			c0.4,4.9,0.7,10.7-5.7,10c-6.2-0.7-12.2-5.6-16.8-9.5c-13.5-11.5-24.8-25.9-35.2-40.3c-1.9-2.6-4.8-9.7-8.8-6.2
			c-2.8,2.4-4.3,7.6-5.8,10.8c-2.9,6.1-5.6,12.2-8.6,18.3c-2.5,5-4.9,10.4-8.6,14.7c-3.2,3.7-8.9,0.5-12.2-2.3
			c-4.6-3.9-7-9.9-8.5-15.6c-1.5-5.5-2.1-11.2-2.7-16.8c-0.3-3.4-0.2-7.8-1.8-10.9c-2.8-5.2-8.8,0.2-12.3,1.6
			c-11,4.5-24.1,5.8-34.8-0.3c-4.5-2.6-8.3-6.2-10.9-10.7c-2-3.4-4.4-9.2-2.3-13.1c2.8-5.5,11.4-7.5,16.8-8.8
			c11.9-2.8,25.3-2.8,35.8-10.9c16.1-12.3,20.6-33.6,23.4-52.4c1.9-12.3,3.8-24.6,6.1-36.8c-1,0.6-2.1,1.2-3.1,1.7
			c22.5,6.1,58.4,1.2,63.3-26.9c4.6-26.6-26.5-40.1-48.3-39.7c0.8,1.1,1.6,2.1,2.4,3.2c2.9-10.6,6.1-21.1,9.4-31.6
			c2.8-8.6,5.5-17.4,10.5-24.9c11.3-17.1,32.6-15.8,50.8-15.4c34.5,0.7,72.1,8.1,89.8,41.2c8.4,15.7,11.3,33.7,12.5,51.2
			c1.3,19.1,0.7,38.4,0.6,57.5c0,10.1-1,20.7,0.2,30.8c0.9,7.4,4.1,14,8.6,19.8c3.7,4.7,8.5,10.6,13.9,13.4c3.3,1.7,7.3,2,10.9,2.2
			c12.2,0.7,24.3-1,36.5-0.3c11.9,0.7,25.4,3.7,29.5,16.4C455.9,425.9,460.8,424.6,459.8,421.6z"/>
	</g>
</g>
<path class="st23" d="M181.6,107c-7.2,38.5,23.6,76.5,76.5,86.3c52.9,9.8,108-12.2,115.1-50.7S343.3,65,290.4,55.1
	S188.7,68.5,181.6,107z"/>
<ellipse transform="matrix(0.1827 -0.9832 0.9832 0.1827 84.1583 339.3075)" class="st3" cx="246.2" cy="119" rx="44.2" ry="43.8"/>
<ellipse transform="matrix(0.1827 -0.9832 0.9832 0.1827 73.2292 313.5565)" class="st4" cx="225.2" cy="112.7" rx="19.6" ry="19.4"/>
<g>
	<g>
		<path class="st24" d="M214.9,60.1c-9.3-2.6-14.6-13.7-10.6-22.5c1.3-2.9-3-5.5-4.3-2.5c-5.4,11.7,0.9,26.4,13.5,29.9
			C216.7,65.8,218,61,214.9,60.1L214.9,60.1z"/>
	</g>
</g>
<g>
	<g>
		<path class="st24" d="M234.3,53.3c-9.3-2.6-14.6-13.7-10.6-22.5c1.3-2.9-3-5.5-4.3-2.5c-5.4,11.7,0.9,26.4,13.5,29.9
			C236.1,59,237.4,54.2,234.3,53.3L234.3,53.3z"/>
	</g>
</g>
<g>
	<g>
		<path class="st24" d="M254.1,49.7c-9.3-2.6-14.6-13.7-10.6-22.5c1.3-2.9-3-5.5-4.3-2.5c-5.4,11.7,0.9,26.4,13.5,29.9
			C255.9,55.3,257.2,50.5,254.1,49.7L254.1,49.7z"/>
	</g>
</g>
</svg>
