<?xml version="1.0" encoding="utf-8"?>
<!-- Generator: Adobe Illustrator 22.1.0, SVG Export Plug-In . SVG Version: 6.00 Build 0)  -->
<svg version="1.1" id="Слой_1" xmlns="http://www.w3.org/2000/svg" xmlns:xlink="http://www.w3.org/1999/xlink" x="0px" y="0px"
	 viewBox="0 0 512 556" style="enable-background:new 0 0 512 556;" xml:space="preserve">
<style type="text/css">
	.st0{fill:#06662F;}
	.st1{fill:#108A37;}
	.st2{fill:#FFFFFF;stroke:#06662F;stroke-width:4;stroke-miterlimit:10;}
	.st3{fill:#010202;stroke:#010202;stroke-width:4;stroke-miterlimit:10;}
	.st4{fill:#FFFFFF;stroke:#010202;stroke-width:4;stroke-miterlimit:10;}
	.st5{fill:#FFFFFF;}
	.st6{fill:#0B662F;}
	.st7{fill:#3C9235;}
	.st8{fill:#5EB130;}
	.st9{fill:#FFFFFF;stroke:#3C9236;stroke-width:4;stroke-miterlimit:10;}
	.st10{fill:#193A1D;}
	.st11{fill:#225527;}
	.st12{fill:#FFFFFF;stroke:#1B3A1F;stroke-width:5;stroke-miterlimit:10;}
	.st13{fill:#FFFFFF;stroke:#193A1D;stroke-width:7;stroke-miterlimit:10;}
	.st14{fill:#A2C617;}
	.st15{fill:#78942A;}
	.st16{fill:#FFFFFF;stroke:#79942A;stroke-width:4;stroke-miterlimit:10;}
	.st17{fill:#79942A;}
	.st18{fill:#5FB669;}
	.st19{fill:#3B7F40;}
	.st20{fill:#FFFFFF;stroke:#3B7F40;stroke-width:5;stroke-miterlimit:10;}
	.st21{fill:#18A638;}
	.st22{fill:#09672F;}
	.st23{fill:#FFFFFF;stroke:#0E672F;stroke-width:7;stroke-miterlimit:10;}
	.st24{fill:#0E672F;}
</style>
<g>
	<path class="st14" d="M385,432.3c-3.9,5.5-16.9,11.7-22.4,9.8c-6.8-2.3-27.3-5.2-32.6-11.6c-5.7-7-13-16.8-19.5-11.4
		c-5.2,4.2-5.2,15.2-9.6,20.9c-5.2,6.7-13.6,3.1-19.3-2.7s-10.5-13.9-17.3-16.4c-8.7-3.2-17.6,3.9-24.3,12.3s-12.6,18.5-20.8,23.7
		c-13.2,8.3-30.6-0.6-36.9-18.8c-1.2-3.3-2-7-3.6-9.9c-3.8-6.7-11-7.7-16.9-5.2c-5.9,2.5-10.9,7.7-16.2,11.9
		c-9.2,7.1-20,11-30.2,7.6s-19.2-15.7-19.8-30.3c-0.6-14.6,6.8-28.5,17.1-25.9l4.1,0.1c11.3,9.1,25.4-1.1,32.8-16
		c7.4-15,9.2-33.8,11.1-51.8c5.4-50.5,14-100.4,25.5-148.9c3.4-14.1,7.5-29.1,16.5-37.2c7.5-6.7,16.8-7.2,25.7-7.3
		c27.4-0.4,57.7,2.7,77.1,29.9c20.4,28.6,21.6,73.5,21.5,113.9c0,20.9-0.1,41.9-0.1,62.8c0,17.1,7.3,28.7,16.5,39.9
		c9.9,11.9,26-8.4,36,15.4C379.5,386.9,393.5,420.4,385,432.3z"/>
	<g>
		<path class="st15" d="M383.2,430.5c-4.3,5.5-13.5,10.6-20.6,9c-6.8-1.6-13.7-3.1-20.4-5.3c-3.2-1-6.7-2.2-9.3-4.3
			c-3.4-2.9-5.7-7.1-9-10.1c-5-4.6-11.7-7-16.7-0.9c-4.7,5.8-3.7,18-10.6,21.6c-9.2,4.7-18.3-11.6-23.5-16.6
			c-16.1-15.5-31.5,2.9-41.1,15.9c-5.6,7.6-12.3,17.2-22.6,17.7c-8.8,0.4-16.6-5.6-21.1-12.8c-4.7-7.5-4.7-18.8-13.1-23.6
			c-7.4-4.2-15.4-0.7-21.6,3.9c-8.9,6.7-17,15.4-28.9,16.1c-10.5,0.6-18.7-6.3-23.1-15.3c-4.5-9.3-5-22.1,0.4-31.2
			c2.4-4.1,5.4-6.2,10.2-5.9c0.9,0.1,1.8,0.1,2.7,0.1c2.1,0.2,2,0.8,4.1,1.8c16.1,7.7,30-11.4,35.1-24.1
			c8.3-20.5,8.5-43.8,11.2-65.5c3-24.9,6.9-49.6,11.4-74.2c4.3-23.1,8.5-46.6,15.2-69.1c2.9-9.6,6.9-20.5,15.9-26
			c8.3-5,19.2-4.3,28.6-4.1c17.4,0.3,35.4,2.9,50.3,12.6c34.8,22.7,37.1,72.7,37.7,109.9c0.4,23.6,0.1,47.2,0,70.8
			c0,10.4-0.3,20.5,3.5,30.3c3,7.9,7.8,15.1,13.3,21.6c3.8,4.4,8.4,5.7,14,5.3c6-0.5,12.4-2.4,17.3,2.4c3.4,3.4,5.1,8.3,6.7,12.8
			c2.1,6.1,4,12.3,5.1,18.7c1.1,6.1,2.1,13.7-1.5,19.2c-1.8,2.7,2.6,5.2,4.3,2.5c7.1-10.8,1.5-27.8-2.2-38.9
			c-3.2-9.8-7.6-21.8-19.6-22.5c-5.6-0.3-12.7,2.9-17.8-0.3c-3.3-2.1-5.9-6.4-8-9.6c-3.1-4.5-5.8-9.3-7.5-14.5
			c-3.8-11.4-2.6-23.9-2.5-35.8c0-13.1,0.1-26.2,0.1-39.3c0-21.8,0-43.6-3.1-65.2c-2.7-19.4-7.9-39.3-19.8-55.2
			c-11.1-14.9-27.3-23.9-45.3-27.4c-8.7-1.7-17.5-2.3-26.3-2.4c-9.2-0.1-19.2-0.4-27.7,3.8c-18.7,9.1-22.1,35.9-26.1,53.8
			c-5.7,25.1-10.6,50.4-14.6,75.9c-4,24.8-6.7,49.8-9.7,74.7c-1.4,11.6-3.2,23.5-7.7,34.4c-3.7,9-11.2,21.1-22.1,22
			c-4.3,0.4-6.7-2.7-10.5-3.4c-2.2-0.4-5.6-0.6-7.8-0.3c-7.7,1-12.1,8.8-14.1,15.5c-4.8,16.5,1.8,38.6,18.9,45.3
			c9.5,3.7,19.9,1.1,28.3-4c8.2-4.9,17.8-18.6,28.5-15.8c6.5,1.7,7.6,8.7,9.6,14.2c1.5,4.4,3.7,8.5,6.6,12.1
			c4.8,6,11.7,10.6,19.4,11.5c20.7,2.3,28.9-22.1,41.5-33.5c4.1-3.7,9.7-7.4,15.5-5.7c5.4,1.6,9.2,7.1,12.7,11.3
			c4.9,5.9,11.9,13.4,20.5,11.5c8.2-1.8,9.9-11.3,12.1-18c1.9-5.6,5.1-10.1,10.9-5.4c3.7,3,6.1,7.2,9.5,10.5
			c4.9,4.8,12.9,6.6,19.3,8.2c5.7,1.4,12.9,4.4,18.8,3.7c7.1-0.8,15.4-5,19.8-10.7C388.7,431.5,385.2,428,383.2,430.5z"/>
	</g>
</g>
<circle class="st16" cx="170.5" cy="116.1" r="35.5"/>
<circle class="st3" cx="170.5" cy="116.1" r="22.2"/>
<circle class="st4" cx="181.5" cy="115" r="9.8"/>
<circle class="st16" cx="318.7" cy="116.4" r="35.5"/>
<circle class="st3" cx="318.7" cy="116.4" r="22.2"/>
<circle class="st4" cx="330.7" cy="116.2" r="9.8"/>
<g>
	<path class="st5" d="M222.9,271c14.8-0.5,31.5-1.1,46.3-1.5c1,0,2.1,0,2.8,0.7c0.4,0.5,0.6,1.2,0.7,1.8c1.3,9.2-2.6,19-9.9,24.7
		s-17.8,7.1-26.4,3.6c-11.7-4.8-23.4-23.2-14.5-29L222.9,271z"/>
	<g>
		<path class="st17" d="M222.9,273.5c11.9-0.4,23.9-0.8,35.8-1.2c2.8-0.1,6-0.6,8.8-0.3c2.4,0.3,2.6,0.4,2.9,2.9
			c0.1,0.9,0,2-0.1,2.9c-0.5,5.9-3.4,11.6-7.7,15.7c-8.7,8-22.3,8.2-31.3,0.7c-3.4-2.8-6.4-6.4-8.4-10.5c-1.2-2.4-3.7-9.3,0.6-10.3
			c3.1-0.7,1.8-5.5-1.3-4.8c-11.6,2.7-3.8,18.7,0.5,24c8.9,11,23.4,15.4,36.6,9.1c6.2-3,11-8.3,13.7-14.7c1.8-4.4,4.6-14.2,0.9-18.3
			c-2-2.3-5.4-1.7-8.2-1.6c-4.8,0.2-9.5,0.3-14.3,0.5c-9.5,0.3-19.1,0.6-28.6,1C219.7,268.6,219.7,273.6,222.9,273.5z"/>
	</g>
</g>
</svg>
