<?xml version="1.0" encoding="utf-8"?>
<!-- Generator: Adobe Illustrator 22.1.0, SVG Export Plug-In . SVG Version: 6.00 Build 0)  -->
<svg version="1.1" id="Слой_1" xmlns="http://www.w3.org/2000/svg" xmlns:xlink="http://www.w3.org/1999/xlink" x="0px" y="0px"
	 viewBox="0 0 512 512" style="enable-background:new 0 0 512 512;" xml:space="preserve">
<style type="text/css">
	.st0{fill:#06662F;}
	.st1{fill:#108A37;}
	.st2{fill:#FFFFFF;stroke:#06662F;stroke-width:4;stroke-miterlimit:10;}
	.st3{fill:#010202;stroke:#010202;stroke-width:4;stroke-miterlimit:10;}
	.st4{fill:#FFFFFF;stroke:#010202;stroke-width:4;stroke-miterlimit:10;}
	.st5{fill:#FFFFFF;}
	.st6{fill:#0B662F;}
	.st7{fill:#3C9235;}
	.st8{fill:#5EB130;}
	.st9{fill:#FFFFFF;stroke:#3C9236;stroke-width:4;stroke-miterlimit:10;}
	.st10{fill:#193A1D;}
	.st11{fill:#225527;}
	.st12{fill:#FFFFFF;stroke:#1B3A1F;stroke-width:5;stroke-miterlimit:10;}
	.st13{fill:#FFFFFF;stroke:#193A1D;stroke-width:7;stroke-miterlimit:10;}
	.st14{fill:#A2C617;}
	.st15{fill:#78942A;}
	.st16{fill:#FFFFFF;stroke:#79942A;stroke-width:4;stroke-miterlimit:10;}
	.st17{fill:#79942A;}
	.st18{fill:#5FB669;}
	.st19{fill:#3B7F40;}
	.st20{fill:#FFFFFF;stroke:#3B7F40;stroke-width:5;stroke-miterlimit:10;}
	.st21{fill:#18A638;}
	.st22{fill:#09672F;}
	.st23{fill:#FFFFFF;stroke:#0E672F;stroke-width:7;stroke-miterlimit:10;}
	.st24{fill:#0E672F;}
</style>
<g>
	<g>
		<path class="st10" d="M260.5,212.8c2.1-6,2.2-12.9,2.2-19.2c0-8.2-0.6-16.5-1.4-24.6c-0.9-8.4-2-16.9-3.5-25.2
			c-1-5.5-2.2-11.2-4.8-16.2c-3.2-6-11.4-7.8-17.1-4.5c-6,3.5-7.7,11.1-4.5,17.1c1.1,2-1-3.3-0.2-0.5c0.3,1,0.6,2,0.9,3
			c0.7,2.7,1.3,5.5,1.8,8.3c0.6,3.3,1.1,6.6,1.6,9.8c0.2,1.5-0.2-1.8,0.1,0.6c0.1,1,0.2,1.9,0.4,2.9c0.2,2,0.4,3.9,0.6,5.9
			c0.7,7.4,1.3,14.9,1.3,22.4c0,3.2-0.1,6.3-0.4,9.5c-0.2,3.4,0.6-1.6-0.1,0.9c-0.3,1.1-0.5,2.2-0.9,3.3c-2.2,6.4,2.5,13.7,8.7,15.4
			C252.1,223.5,258.3,219.2,260.5,212.8L260.5,212.8z"/>
	</g>
</g>
<g>
	<path class="st11" d="M408,399c1.6,5.3-23,35-47.8,33.1c-7-0.5-27.3-3.7-32.6-8.3c-5.7-5-15.1-25.2-21.6-21.3
		c-5.2,3,6.6,62,1.1,59.5c-13.2-6-22.9-15-27.8-33.4c-1.8-6.8-16.1-22.4-22.9-24.1c-8.7-2.3-18.5,12.2-18.7,21.2
		c-0.2,13.8,12.8,46.6,4.6,50.3c-13.2,5.9-40.9-28.9-53.2-46.5c-1.5-2.2-16.8,39-22.9,38.5c-25-2-17.5-44.1-22.8-41.1
		c-9.2,5.1-20,7.9-30.2,5.4s-19.2-11.2-19.8-21.7c-0.6-10.5,22.7-13.1,22.7-13.1c18.2-2.7,23.8-6.1,31.3-16.8s9.2-24.2,11.1-37.1
		c5.4-36.2,14-71.8,25.5-106.5c3.4-10.1,7.5-20.9,16.5-26.6c7.5-4.8,16.8-5.2,25.7-5.3c27.4-0.3,57.7,2,77.1,21.4
		c20.4,20.4,21.6,52.6,21.5,81.5c0,15-0.1,30-0.1,45c0,12.2,7.3,20.6,16.5,28.6C350.9,390.1,400,373,408,399z"/>
	<g>
		<path class="st10" d="M405.6,399.7c0.3,1.5-2.3,4.7-3.2,5.9c-2.8,3.9-6.2,7.4-9.7,10.5c-8.2,7.2-18.8,13.5-30,13.6
			c-9.2,0.1-19.5-2.1-28.1-5.1c-8.4-2.9-11.8-11.7-17.1-18.3c-2.8-3.4-10.1-10.6-14.2-4.6c-2.3,3.4-1.3,9.7-1,13.5
			c0.5,7.8,1.4,15.6,2.3,23.5c0.7,6.4,1.8,13.1,1.4,19.6c0,0.2-0.3,2-0.2,2.1c-0.2-0.2,1.4-0.3,1.4-1.1c0-0.2-3-1.5-3.4-1.7
			c-4.9-2.7-9.3-6.1-12.8-10.4c-7-8.4-7.9-19.5-14.4-28.1c-4.7-6.2-11.3-14.4-19-16.8c-8.8-2.8-16.4,6.4-19.8,13.3
			c-8.1,16.8,4.6,35.8,4.5,53.1c0,2.9-0.1,5.3-3.4,5.4c-3.7,0.2-7.5-2.4-10.5-4.4c-8.3-5.7-15.3-13.6-21.8-21.2
			c-3.4-4.1-6.7-8.2-9.9-12.5c-1.7-2.3-4.4-8.3-7.3-9.1c-3.9-1.1-6.5,7.2-7.6,9.6c-3.4,7.2-6.6,14.5-10.6,21.5c-1.1,2-2.7,5.8-4.8,7
			c-2.2,1.2-6.4-1-8.5-2.6c-5.5-4.3-7.4-11.9-8.5-18.4c-0.9-5.3-0.5-11.4-2.2-16.5c-0.5-1.4-1.2-2.9-2.8-3.3c-1-0.2-1.6,0.1-2.5,0.4
			c-4.2,1.3-8,3.8-12.4,4.9c-7.3,1.8-15.2,1.6-21.9-2.1c-5.8-3.2-12-9.8-11.9-16.9c0.2-7.1,12.3-9.2,17.7-10.2
			c6.8-1.2,14.8-2.1,21.6-5.3c22.1-10.3,23.7-39.6,27.1-60.4c5.2-31.6,12.9-62.9,22.8-93.4c4.2-12.9,9-27.6,23.4-31.9
			c6.6-2,13.8-1.8,20.6-1.9c6.7,0,13.5,0.1,20.2,0.7c26.5,2.1,52.3,11.7,64,37.4c10.9,24,8.9,52.3,8.9,77.9c0,7.8,0,15.6-0.1,23.5
			c0,6.3,0,12.3,2.5,18.2c2.1,4.9,5.5,9.1,9.2,12.9c2.7,2.7,5.5,5.9,9.3,7.2c6.2,2.1,13.5,1.3,19.9,1.1c8.5-0.3,17.2-0.9,25.7,0.7
			C396.1,388.6,403,392,405.6,399.7c1,3,5.8,1.7,4.8-1.3c-5.6-16.8-25.5-17.4-40.4-17c-7.6,0.2-15.8,1.4-23.3-0.1
			c-4.1-0.8-6.6-3.6-9.4-6.5c-4.6-4.6-8.5-10.1-9.8-16.6c-1.6-7.8-0.4-16.7-0.4-24.7c0-8.5,0.1-16.9,0.1-25.4
			c0-12.9-0.2-25.9-2.1-38.7c-3.8-25.4-16.3-47.9-40.7-58.3c-11.8-5-24.7-7.1-37.4-8c-12.9-0.9-28-2.2-40.6,1.8
			c-12.4,4-18.9,14.7-23.2,26.4c-5.6,15.2-10,30.9-14,46.6c-4.2,16.1-7.7,32.5-10.6,48.9c-2.6,14.6-3.3,30.6-9,44.4
			c-4.2,10.2-11.3,18.4-22.1,21.4c-7.2,2.1-14.8,2.4-21.9,4.5c-6.2,1.9-14.6,5.5-14.7,13.1c-0.2,11.1,9.7,20.6,19.5,23.9
			c6.3,2.1,13.3,2,19.7,0.5c3.4-0.7,6.6-1.9,9.8-3.3c0.4-0.2,4.8-2.2,4.7-2.3c-0.1-0.3-2.1-0.2-2-0.3c-0.5,0.7,0.9,6.3,1,7.3
			c0.4,3.4,0.7,6.8,1.4,10.2c1.3,6.9,3.6,14.3,9,19.2c3.9,3.5,11.6,7.4,16.2,3.2c5-4.6,8-12.3,10.9-18.3c1.8-3.7,3.5-7.5,5.3-11.2
			c0.6-1.3,4-6.1,3.8-7.4c-0.1-0.5-2.6-0.4-2.6-0.2c-0.1,0.3,1.6,2.2,1.8,2.5c1.6,2.2,3.2,4.3,4.8,6.5c3.3,4.3,6.6,8.5,10.1,12.6
			c6.7,7.9,14,15.8,22.8,21.5c4.6,3,12.9,7.1,17.9,2.5c5-4.5,2.2-14.8,1.1-20.4c-1.9-9.7-5.4-19.6-5.8-29.5
			c-0.3-8.3,8.5-25.3,18.5-18.9c8.6,5.4,15.9,14.5,19,24c3.4,10.5,9.3,19.7,18.4,26.2c3.2,2.3,12.6,9.9,14.6,2.8
			c1.5-5.3,0-12.2-0.6-17.6c-0.8-8.2-1.9-16.5-2.5-24.7c-0.3-3.4-0.5-6.7-0.5-10.1c0-1.1,0.1-2.2,0.2-3.3c0-0.3,0.1-0.8,0.2-1.1
			c0.3-0.7-0.5,0,0,0c3.6-0.2,7.4,6.5,9.1,8.9c2.6,3.6,4.9,7.5,7.9,10.8c5.8,6.3,16.8,7.6,24.8,8.9c9.8,1.7,18.8,2.1,28.2-1.7
			c9.5-3.8,18-10.4,24.8-17.9c3.2-3.6,9.2-9.8,8.1-15.3C409.8,395.2,404.9,396.5,405.6,399.7z"/>
	</g>
</g>
<path class="st12" d="M293.8,292.6c0,17.9-17.3,32.5-42.4,32.5S203,310.5,203,292.6s20.3-32.5,45.4-32.5S293.8,274.7,293.8,292.6z"
	/>
<path class="st13" d="M312.5,85c0,25.1-24.1,45.4-58.9,45.4s-67.2-20.3-67.2-45.4s28.2-45.4,63-45.4S312.5,59.9,312.5,85z"/>
<circle class="st3" cx="270" cy="85" r="28.3"/>
<circle class="st4" cx="284.1" cy="83.5" r="12.6"/>
<g>
	<g>
		<path class="st10" d="M297,55.7c8.9-0.8,15.4-9.5,13.2-18.3c-0.8-3.1-5.6-1.8-4.8,1.3c1.4,5.4-2.7,11.4-8.3,11.9
			C293.8,50.9,293.8,55.9,297,55.7L297,55.7z"/>
	</g>
</g>
<g>
	<g>
		<path class="st10" d="M285.5,49.1c8.9-0.8,15.4-9.5,13.2-18.3c-0.8-3.1-5.6-1.8-4.8,1.3c1.4,5.4-2.7,11.4-8.3,11.9
			C282.3,44.4,282.3,49.4,285.5,49.1L285.5,49.1z"/>
	</g>
</g>
<g>
	<g>
		<path class="st10" d="M273.3,44.5c8.9-0.8,15.4-9.5,13.2-18.3c-0.8-3.1-5.6-1.8-4.8,1.3C283,33,279,39,273.3,39.5
			C270.2,39.8,270.1,44.8,273.3,44.5L273.3,44.5z"/>
	</g>
</g>
</svg>
