<?xml version="1.0" encoding="utf-8"?>
<!-- Generator: Adobe Illustrator 22.1.0, SVG Export Plug-In . SVG Version: 6.00 Build 0)  -->
<svg version="1.1" id="Слой_1" xmlns="http://www.w3.org/2000/svg" xmlns:xlink="http://www.w3.org/1999/xlink" x="0px" y="0px"
	 viewBox="0 0 522 556" style="enable-background:new 0 0 522 556;" xml:space="preserve">
<style type="text/css">
	.st0{fill:#06662F;}
	.st1{fill:#108A37;}
	.st2{fill:#FFFFFF;stroke:#06662F;stroke-width:4;stroke-miterlimit:10;}
	.st3{fill:#010202;stroke:#010202;stroke-width:4;stroke-miterlimit:10;}
	.st4{fill:#FFFFFF;stroke:#010202;stroke-width:4;stroke-miterlimit:10;}
	.st5{fill:#FFFFFF;}
	.st6{fill:#0B662F;}
	.st7{fill:#3C9235;}
	.st8{fill:#5EB130;}
	.st9{fill:#FFFFFF;stroke:#3C9236;stroke-width:4;stroke-miterlimit:10;}
	.st10{fill:#193A1D;}
	.st11{fill:#225527;}
	.st12{fill:#FFFFFF;stroke:#1B3A1F;stroke-width:5;stroke-miterlimit:10;}
	.st13{fill:#FFFFFF;stroke:#193A1D;stroke-width:7;stroke-miterlimit:10;}
	.st14{fill:#A2C617;}
	.st15{fill:#78942A;}
	.st16{fill:#FFFFFF;stroke:#79942A;stroke-width:4;stroke-miterlimit:10;}
	.st17{fill:#79942A;}
	.st18{fill:#5FB669;}
	.st19{fill:#3B7F40;}
	.st20{fill:#FFFFFF;stroke:#3B7F40;stroke-width:5;stroke-miterlimit:10;}
	.st21{fill:#18A638;}
	.st22{fill:#09672F;}
	.st23{fill:#FFFFFF;stroke:#0E672F;stroke-width:7;stroke-miterlimit:10;}
	.st24{fill:#0E672F;}
</style>
<g>
	<path class="st18" d="M484,452c-5.4,5.5-47.2-38.8-60-49c-7.5-5.9-27.1-21.8-34.3-28.2c-7.8-7-17.7-16.8-26.6-11.4
		c-7.1,4.2-42.7,108.9-48.7,114.6c-7,6.7,2.2-77.1,0-97c-1.1-9.6-4.9-13.3-14.1-15.8c-11.8-3.2-24,3.9-33.1,12.3
		c-9.1,8.4-29.1,116.4-40.2,121.5c-18,8.3-29.7-98.5-38.3-116.7c-1.6-3.3-2.7-7-5-9.9c-5.2-6.7-15-7.7-23-5.2
		c-8,2.5-14.8,7.7-22.1,11.9c-12.5,7.1-54.2,140.4-68,136.9s-8.9-148,0-159.6C83.3,340,85.2,339.4,92,336h15.5
		c32.5,2.5,26.6-6.5,36.7-21.4c10.1-15,12.5-33.8,15.1-51.8c7.4-50.5-11.9-119.6,3.8-168.1c4.6-14.1,9.8-36,22-44
		c10.2-6.7,36-32,58.9-36c30.8-5.4,111.7,16.9,138.1,44c27.8,28.6,3.8,114.1,3.6,154.4c-0.1,20.9-0.1,41.9-0.2,62.8
		c0,17.1,9.9,28.7,22.5,39.9c13.4,11.9,28.4,8.4,42,32.2C450,348,495.6,440.1,484,452z"/>
	<g>
		<path class="st19" d="M482.2,450.2c0.8-0.7,0.3,0-0.5-0.5c-1-0.7-2.2-1.1-3.3-1.7c-3.1-1.9-5.9-4.2-8.7-6.6
			c-7.3-6.1-14.2-12.6-21.1-19.2c-12.6-12-25.5-23.1-39-34.1c-8.6-7-16.7-14.4-25.2-21.4c-5.9-4.8-16.8-11.6-23.7-4.5
			c-2.8,2.8-4.4,7.3-6,10.8c-2.9,6.5-5.6,13.1-8.3,19.7c-6.6,16.6-12.9,33.3-19.4,49.9c-2.7,7-5.5,14.1-8.4,21.1
			c-1,2.5-2.1,5-3.2,7.4c-0.6,1.3-2.2,3.2-2.4,4.6c-0.1,0.7-0.4,0.2-0.2,0.3c-0.2-0.2,2.6,0,2.3,0.4c0.1-0.1-0.3-0.4-0.2-0.7
			c0.3-1.7-0.5-4.4-0.6-6.2c-0.3-7.4,0.1-14.9,0.4-22.3c0.8-17.7,2.2-35.4,2.5-53.2c0.1-6.7,0.5-14.2-2-20.5
			c-3.7-9.3-15.4-12.7-24.6-11.5c-6.4,0.9-12.5,3.8-17.7,7.5c-3.1,2.2-6.7,4.5-8.9,7.7c-2.6,3.8-3.9,8.7-5.3,13
			c-10.3,31.5-15.4,64.8-27.2,95.8c-1,2.7-3,9.2-5.5,10.5c-2.6,1.3-5.2-3-6.4-5c-7.5-13-10.2-29.3-13.4-43.8
			c-3.7-16.8-6.7-33.7-10.5-50.4c-1.2-5.2-2.4-10.5-4.4-15.4c-2.1-4.9-4-10.3-8.2-13.8c-4.1-3.4-9.4-4.8-14.7-4.7
			c-6.2,0.1-11.9,2.3-17.3,5.2c-4.8,2.6-10.3,5.4-14.5,8.8c-2.8,2.3-4.7,5.9-6.4,9c-6.7,12.5-11.9,25.9-17.2,39
			c-6.7,16.5-13.2,33.1-20.3,49.5c-5,11.7-9.9,24.8-17.8,35c-0.9,1.2-1.9,2.3-3,3.2c-0.9,0.7-0.8,0.2-0.7,0.3
			c-1.9-2.4-2.7-6.1-3.4-9.4c-2.8-13.8-3-28.3-3.2-42.3c-0.3-17.8,0.1-35.7,1.1-53.5c0.8-14,1.6-28.2,4.3-41.9
			c0.9-4.5,1.8-7.6,4.7-11.2c4.8-6.2,9.8-13.1,17.2-16.4c1.1-0.5-0.1-0.2,0.3-0.3c0.5-0.1,1.2,0,1.8,0c1.9,0,3.8,0,5.7,0
			c3.2,0,6.3-0.1,9.5,0.1c8,0.5,18.5,1.4,25.3-3.8c4.8-3.7,6.5-9.9,9.3-15c2.9-5.2,6.2-10,8.5-15.5c2.6-6.3,4.4-12.9,5.8-19.5
			c5.5-26.8,5.9-53.3,4.2-80.5c-1.8-27.8-5-55.9-2-83.8c1.3-12.5,4.8-24.2,8.6-36.2c3.5-11.1,7.5-24.3,17.4-31.5
			c17.5-12.7,34.1-30.1,55.8-35.2c8-1.9,16.5-1.4,24.6-0.6c10.6,1,21,3.1,31.4,5.6c21.7,5.3,43.5,12.7,63,23.8
			c7.5,4.3,15.5,9.3,21,16.1c5.6,6.8,8.1,15.8,9.4,24.4c6.9,42.7-8.2,85.6-8.3,128.3c-0.1,16.7-0.1,33.4-0.1,50.1
			c0,13.7,0.5,25.7,8.8,37.2c6.5,8.9,15,17.3,24.9,22.2c9.9,4.9,19.4,8.6,26.5,17.7c6.4,8.2,10.2,18.6,14.5,28
			c7.1,15.6,13.8,31.4,19.3,47.6c2.3,6.7,4.4,13.5,5.6,20.5C483.2,441.4,484.6,447.6,482.2,450.2c-2.2,2.4,1.4,5.9,3.5,3.5
			c2.9-3.2,2.8-8,2.4-12.1c-0.7-6.9-2.6-13.6-4.7-20.2c-5.2-16.6-12-32.6-19.1-48.5c-3.9-8.8-7.7-17.8-12.2-26.2
			c-5.5-10.2-14-17.8-24.5-22.6c-4.3-2-8.7-3.8-12.8-6.2c-5.5-3.4-10.2-8.2-14.5-12.9c-4.7-5.2-8.7-11.1-10.8-17.8
			c-2.3-7.4-1.6-15.3-1.6-23c0-17.2,0-34.3,0.1-51.5c0.2-20.9,4.2-41.8,6.7-62.5c2.6-22,5.2-45,1.1-66.9c-1.6-8.3-4.3-16.7-9.6-23.4
			c-5.2-6.7-12.6-11.8-19.8-16.1c-19-11.5-40.6-19.1-62-24.7c-18.3-4.8-38.5-9.3-57.5-7.3c-22.3,2.4-40.7,19.2-57.5,32.5
			c-3.4,2.7-7.2,4.9-10.2,8c-3.9,4.1-6.8,9.1-9.1,14.2c-4.8,10.7-8.4,22.3-11.3,33.6c-6.8,26.6-4.9,54.8-3,81.9
			c1.9,28,4.5,56.1,0.4,84.1c-2.1,14.6-4.4,29.9-11.7,42.9c-2.3,4.1-5,7.9-7,12.2c-1.2,2.6-2.3,5.4-4.1,7.7
			c-5.7,7.2-18.1,4.8-26,4.5c-3-0.1-6.1,0-9.2,0c-2.8,0-5.6-0.4-8.2,0.7c-6.9,2.9-11.7,8.6-16.3,14.3c-3.7,4.6-6.5,8-7.8,13.6
			c-3.1,12.8-3.9,26.4-4.8,39.5c-1.2,18.1-1.8,36.2-1.6,54.3c0.1,15.3,0.4,30.9,2.8,46.1c0.8,4.8,2.5,18.6,10.3,16.5
			c3.3-0.9,5.8-4.5,7.6-7.2c3.4-4.9,6.1-10.3,8.6-15.7c14.8-30.6,25.7-63,39.6-94c2.4-5.3,4.8-10.7,7.9-15.7c3.5-5.8,9-8,15.1-11.5
			c6.4-3.7,13.6-6.9,21.2-5.5c8.2,1.5,11.1,7.9,14,14.9c2,5,3.2,10.2,4.4,15.4c3.9,17.1,7,34.4,10.8,51.6
			c3.2,14.5,6.1,30.7,13.7,43.7c4.4,7.5,12.1,10.5,17,1.8c6.9-12.2,10-27.3,13.7-40.7c4.8-17.6,9.1-35.3,14.1-52.9
			c1.8-6.2,3.5-12.5,6-18.5c3.1-7.5,10.7-12.2,18.2-15.2c6.9-2.8,15-2.9,21.5,1c4.5,2.7,5.7,7.6,6.1,12.5c0.6,6.9,0.2,13.9-0.1,20.8
			c-0.7,18.5-2.2,37-2.6,55.5c-0.1,2.3-1.3,28.2,6.9,21c2.5-2.2,3.8-6.5,5-9.4c2.8-6.3,5.3-12.8,7.8-19.2
			c6.6-16.9,13-33.9,19.6-50.7c2.9-7.3,5.8-14.7,9-21.9c1.7-3.9,3.5-9.4,6.3-12.5c2.8-3.1,9-1,12.8,1.5c5.3,3.4,9.7,8,14.5,12.1
			c8.6,7.3,17.3,14.3,26.1,21.4c13.4,10.7,25.3,23,38,34.6c6,5.5,12,11,18.7,15.6c3,2.1,8.1,5.7,11.6,2.6
			C488.2,451.7,484.7,448.1,482.2,450.2z"/>
	</g>
</g>
<circle class="st20" cx="233.9" cy="121.7" r="35.5"/>
<circle class="st3" cx="233.9" cy="121.7" r="22.2"/>
<circle class="st5" cx="243.9" cy="120.5" r="9.8"/>
<circle class="st20" cx="324.3" cy="121.7" r="35.5"/>
<circle class="st3" cx="324.3" cy="121.7" r="22.2"/>
<circle class="st5" cx="335.3" cy="121.5" r="9.8"/>
<g>
	<path class="st5" d="M241.3,208.7c21.7-1.2,46.1-2.6,67.7-3.8c1.4-0.1,3,0,4,1.6c0.6,1.1,0.8,2.7,1,4.2
		c1.9,21.3-3.9,43.9-14.7,57.2c-10.8,13.2-26.1,16.6-38.6,8.4c-17.1-11.2-34.1-53.5-21-66.9L241.3,208.7z"/>
	<g>
		<path class="st19" d="M241.3,211.2c19.6-1.1,39.2-2.2,58.8-3.3c2.3-0.1,4.8-0.5,7.2-0.4c3.8,0.1,4.1,1.3,4.4,4.9
			c0.4,4.5,0.3,9,0,13.5c-0.7,9-2.6,18-6,26.3c-6.1,14.8-20.2,30.8-37.9,24.7c-12.4-4.3-20.1-18.4-24.8-29.8
			c-2.7-6.6-4.8-13.7-5.2-20.8c-0.2-4.1-0.2-13.5,4.3-15.1c3-1.1,1.7-5.9-1.3-4.8c-12.3,4.5-7.9,25.9-5.1,35
			c4.1,13.5,11.8,29.1,23.9,37.1c16.5,10.9,35.5,1.4,45.3-13.7c5.4-8.4,8.7-18.3,10.5-28.1c0.9-5.2,1.5-10.4,1.6-15.7
			c0.1-4.5,0.7-10.8-1.4-15c-2.1-4.3-6.8-3.4-10.9-3.2c-7,0.4-14,0.8-21,1.2c-14.1,0.8-28.2,1.6-42.3,2.4
			C238.1,206.4,238.1,211.4,241.3,211.2z"/>
	</g>
</g>
</svg>
