<?xml version="1.0" encoding="utf-8"?>
<!-- Generator: Adobe Illustrator 16.0.3, SVG Export Plug-In . SVG Version: 6.00 Build 0)  -->
<!DOCTYPE svg PUBLIC "-//W3C//DTD SVG 1.1//EN" "http://www.w3.org/Graphics/SVG/1.1/DTD/svg11.dtd">
<svg version="1.1" id="Layer_1" xmlns="http://www.w3.org/2000/svg" xmlns:xlink="http://www.w3.org/1999/xlink" x="0px" y="0px"
	 width="250px" height="250px" viewBox="0 0 250 250" enable-background="new 0 0 500 500" xml:space="preserve">
<circle fill="#143964" cx="250.174" cy="250.135" r="244.174"/>
<path fill="#196322" d="M404.884,296.064c-107.994-146.994,21.095,101.807,41.999,67.496
	c137.993-226.489-94.497,347.984-307.485-37.498c-44.539-80.611,233.988,89.996,329.233-12
	C496.053,284.697,420.088,316.758,404.884,296.064z"/>
<path fill="#196322" d="M98.15,176.189c107.994,146.992-21.095-101.808-41.999-67.497
	c-137.993,226.489,117.831-345.104,330.819,40.378c44.539,80.61-257.322-92.876-352.567,9.119
	C6.981,187.556,82.946,155.495,98.15,176.189z"/>
<path opacity="0.9" fill="#F3F4ED" d="M452.966,105.573c-12.982-4.805-157.183-54.232-287.985-50.998
	c-123.543,3.054,28.499,55.154,28.499,68.997c0,0-234.493,42.877-137.993-32.998C96.619,58.232,583.29,153.808,452.966,105.573z"/>
<path opacity="0.9" fill="#F3F4ED" d="M7.488,296.064c0,13.842,26.999,137.992,172.491,82.496
	c115.465-44.045,91.496,37.498,143.993,47.996c0,0,164.743-151.334,37.498-127.492C226.931,324.271,7.488,282.221,7.488,296.064z"/>
</svg>
