<?xml version="1.0" encoding="utf-8"?>
<!-- Generator: Adobe Illustrator 16.0.3, SVG Export Plug-In . SVG Version: 6.00 Build 0)  -->
<!DOCTYPE svg PUBLIC "-//W3C//DTD SVG 1.1//EN" "http://www.w3.org/Graphics/SVG/1.1/DTD/svg11.dtd">
<svg version="1.1" id="Layer_1" xmlns="http://www.w3.org/2000/svg" xmlns:xlink="http://www.w3.org/1999/xlink" x="0px" y="0px"
	 width="500px" height="500px" viewBox="0 0 500 500" enable-background="new 0 0 500 500" xml:space="preserve">
<path fill-rule="evenodd" clip-rule="evenodd" fill="#FFFFFF" d="M62.014,22.488c-4.311,1.372-8.861,2.251-12.884,4.214
	C39.723,31.29,35.243,39.819,33.31,49.549c-2.178,10.962-2.105,21.953,1.001,32.92c3.944,13.925,14.831,21.384,28.885,22.199
	c5.641,0.328,11.398-0.376,17.027-1.154c4.034-0.558,7.012-2.89,7.062-7.545c0.029-2.743,0.293-5.525-0.063-8.221
	c-0.514-3.892-2.143-6.517-7.01-5.405c-2.607,0.595-5.476-0.066-8.204,0.138c-8.165,0.61-10.214-1.691-11.005-8.868
	c-0.768-6.97-0.828-14.171,0.028-21.12c0.787-6.38,3.684-8.039,10.388-8.217c1.757-0.047,3.53,0.325,5.289,0.556
	c7.184,0.945,9.576-1.019,9.994-8.235c0.566-9.771-3.126-13.665-13.521-14.086c-3.521-0.143-7.053-0.022-10.58-0.022"/>
<path fill-rule="evenodd" clip-rule="evenodd" fill="#FFFFFF" d="M116.095,22.488c-4.703,1.568-9.928,2.306-14,4.873
	c-8.916,5.622-11.203,20.291-4.732,29.757c3.684,5.389,8.165,10.233,12.259,15.344c1.225,1.528,2.457,3.066,3.515,4.709
	c2.396,3.722,1.405,6.472-2.932,6.928c-3.468,0.365-7.055-0.153-10.566-0.509c-3.695-0.374-5.547,1.223-6.516,4.725
	c-2.304,8.334,0.45,14.673,8.895,15.595c8.478,0.925,17.506,0.771,25.773-1.146c18.017-4.178,17.775-23.476,11.063-34.32
	c-3.988-6.442-9.754-11.764-14.442-17.806c-1.17-1.508-2.103-4.126-1.58-5.722c0.404-1.23,3.206-2.13,5.032-2.325
	c2.499-0.266,5.208-0.138,7.598,0.581c2.81,0.844,5.52,0.714,6.336-1.922c1.214-3.92,2.429-8.442,1.522-12.196
	c-0.554-2.292-4.9-4.646-7.863-5.175c-6.145-1.098-12.503-0.997-18.773-1.389"/>
<path fill-rule="evenodd" clip-rule="evenodd" fill="#FFFFFF" d="M173.704,22.488c-4.703,1.568-9.929,2.306-14.001,4.873
	c-8.916,5.622-11.202,20.291-4.732,29.757c3.684,5.389,8.165,10.233,12.259,15.344c1.225,1.528,2.456,3.066,3.514,4.709
	c2.397,3.722,1.406,6.473-2.931,6.928c-3.468,0.365-7.055-0.153-10.565-0.509c-3.695-0.374-5.547,1.223-6.516,4.725
	c-2.305,8.334,0.449,14.673,8.895,15.595c8.478,0.925,17.505,0.771,25.773-1.146c18.017-4.178,17.775-23.476,11.062-34.32
	c-3.987-6.442-9.754-11.764-14.442-17.806c-1.17-1.508-2.102-4.126-1.58-5.722c0.403-1.23,3.206-2.13,5.032-2.325
	c2.498-0.266,5.207-0.138,7.598,0.581c2.81,0.844,5.52,0.714,6.336-1.922c1.214-3.92,2.428-8.442,1.522-12.196
	c-0.554-2.292-4.9-4.646-7.864-5.175c-6.144-1.098-12.502-0.997-18.773-1.389"/>
<path fill-rule="evenodd" clip-rule="evenodd" fill="#FFFFFF" d="M87.656,135.106c-6.736,1.679-13.355,3.342-18.874,8.158
	c-6.732,5.873-9.631,13.775-10.862,21.86c-1.634,10.73-1.399,21.786,2.178,32.27c4.032,11.818,15.086,19.747,28.147,19.865
	c6.459,0.059,12.952-1.287,19.391-2.253c4.202-0.631,4.882-4.377,5.188-7.604c0.41-4.298,0.635-8.875-2.897-12.264
	c-0.71-0.682-2.29-0.654-3.459-0.622c-3.53,0.097-7.054,0.486-10.583,0.523c-6.174,0.065-9.755-3.241-9.952-9.378
	c-0.188-5.873-0.372-11.779,0.037-17.629c0.602-8.599,4.204-11.796,11.679-11.175c2.352,0.195,4.699,0.466,7.055,0.573
	c5.186,0.234,6.602-1.217,7.078-6.449c1.099-12.067-3.03-15.454-15.309-15.861c-2.74-0.091-5.486-0.013-8.229-0.013"/>
<path fill-rule="evenodd" clip-rule="evenodd" fill="#FFFFFF" d="M146.44,135.106c-3.134,0.784-6.462,1.136-9.371,2.427
	c-11.652,5.169-17.503,14.533-19.52,26.951c-1.859,11.45-1.658,22.543,2.401,33.535c4.591,12.429,15.482,18.882,28.255,19.291
	c5.47,0.174,10.995-0.49,16.451-1.139c5.185-0.616,6.984-2.942,7.056-8.172c0.029-2.155,0.058-4.313-0.006-6.466
	c-0.157-5.316-2.175-6.952-7.634-6.496c-2.14,0.179-4.315-0.083-6.463,0.048c-10.764,0.662-11-1.585-12.667-11.234
	c-1.04-6.022,0.083-12.561,1.027-18.747c1.017-6.646,2.86-7.867,9.289-8.233c1.758-0.1,3.549-0.202,5.284,0.017
	c8.822,1.106,9.268,0.869,10.586-6.498c1.364-7.621-1.29-12.957-7.659-14.006c-5.404-0.89-10.957-0.886-16.442-1.278"/>
<path fill-rule="evenodd" clip-rule="evenodd" fill="#FFFFFF" d="M275.709,130.265c-9.994,1.995-9.994,1.995-9.994,12.345
	c0,15.48,0.178,30.963-0.114,46.438c-0.08,4.295,1.71,5.895,5.405,6.464c0.191,0.03,0.394,0.02,0.588,0.002
	c4.312-0.389,9.4,0.44,12.643-1.628c1.967-1.256,1.094-6.989,1.452-10.716c0.093-0.971,0.014-1.958,0.014-2.938
	c0-9.803,0.988-10.627,11.169-8.707c0,5.767,0.078,11.647-0.027,17.524c-0.068,3.744,0.762,6.376,5.322,5.921
	c0.951-0.095,1.949,0.481,2.936,0.525c11.23,0.498,12.344-0.573,12.344-11.736c0-14.5,0-29,0-43.5c0-8.02-2.527-10.457-10.578-9.952
	c-1.781,0.111-3.538,1.101-5.292,1.062c-3.917-0.087-4.753,2.115-4.717,5.363c0.051,4.506-0.038,9.015,0.027,13.521
	c0.062,4.18-2.415,4.797-5.894,4.769c-3.399-0.028-5.443-0.92-5.32-4.77c0.131-4.11-0.293-8.261,0.115-12.335
	c0.471-4.715-1.263-6.962-5.963-7.087c-1.18-0.032-2.352-0.368-3.527-0.563"/>
<path fill-rule="evenodd" clip-rule="evenodd" fill="#FFFFFF" d="M459.704,130.265c-0.392,0.196-0.77,0.525-1.179,0.568
	c-8.226,0.873-8.227,0.867-8.227,8.837c0,15.872-0.011,31.744,0.005,47.615c0.006,6.358,1.278,7.617,7.637,7.638
	c5.878,0.019,11.757,0.004,17.636,0.004c7.895,0,11.09-4.222,8.801-11.752c-1.237-4.072-4.061-5.533-8.216-4.722
	c-4.78,0.934-6.109-1.181-5.979-5.867c0.316-11.356,0.104-22.727,0.104-34.092c0-6.777-0.001-6.768-7.053-7.652
	c-0.989-0.124-1.961-0.382-2.94-0.578"/>
<path fill-rule="evenodd" clip-rule="evenodd" fill="#FFFFFF" d="M390.135,159.903c1.372,3.331,5.468,13.372,5.916,16.823
	c0.807,6.218,5.075,4.978,8.98,5.314c4.173,0.359,6.583-1.097,7.732-5.312c0.941-3.449,4.419-16.092,5.791-19.423
	c0.196,5.683,0.488,11.364,0.548,17.048c0.03,2.937-0.502,5.877-0.521,8.817c-0.079,11.783,2.791,14.14,14.672,12.359
	c4.134-0.62,6.057-2.431,5.981-7.07c-0.268-16.847-0.268-33.704,0-50.551c0.075-4.639-1.834-6.552-5.984-7.045
	c-2.148-0.255-4.318-0.639-6.465-0.559c-11.608,0.436-12.183,0.907-15.864,12.308c-1.542,4.775-2.991,9.581-4.481,14.373
	c-0.615,0.028-1.23,0.058-1.846,0.087c-1.617-5.017-3.383-9.991-4.818-15.059c-2.759-9.745-4.539-11.439-14.143-11.676
	c-2.928-0.072-5.869,0.966-8.816,1.042c-4.087,0.107-5.252,2.568-5.263,5.94c-0.057,17.635,0.097,35.272-0.109,52.905
	c-0.054,4.618,3.175,5.145,5.96,5.132c4.396-0.02,9.486,1.868,12.884-2.816c0.373-0.513,0.072-1.532,0.047-2.315
	c-0.189-5.878-0.476-11.755-0.555-17.636C389.725,168.477,390.037,164.018,390.135,159.903z"/>
<path fill-rule="evenodd" clip-rule="evenodd" fill="#FFFFFF" d="M325.676,131.44c-4.654,3.833-1.542,9.026-2.127,13.549
	c-0.074,0.572,2.838,1.847,4.498,2.236c1.672,0.392,3.51,0.086,5.858,0.086c0,13.71-0.003,26.842,0.001,39.974
	c0.002,6.73,1.338,8.063,8.229,8.226c1.176,0.028,2.352,0.028,3.527,0c8.13-0.193,8.817-0.885,8.817-8.813
	c0-10.777-0.016-21.554,0.015-32.332c0.005-2.16,0.186-4.318,0.266-6.088c0.957-0.446,1.489-0.813,2.076-0.948
	c2.733-0.629,7.126-0.402,7.871-1.952c1.417-2.94,0.808-6.882,0.924-10.412c0.107-3.294-2.091-3.566-4.685-3.552
	c-11.561,0.06-23.122,0.026-34.683,0.026"/>
<path fill-rule="evenodd" clip-rule="evenodd" fill="#FFFFFF" d="M65.835,317.069c-2.744,0.784-5.484,1.577-8.23,2.35
	c-10.953,3.076-17.66,9.838-20.741,21.118c-3.427,12.545-3.637,24.743,0.175,37.078c3.765,12.184,12.164,18.502,24.655,20.724
	c9.849,1.752,19.292,0.943,28.839-1.289c4.193-0.98,6.625-2.86,6.529-7.677c-0.222-11.164-0.042-22.337-0.083-33.506
	c-0.021-5.588-1.454-6.997-7.042-7.045c-5.29-0.045-10.599,0.256-15.866-0.104c-3.466-0.236-4.997,1.093-5.922,4.197
	c-2.084,6.986-0.325,11.561,5.876,15.941c2.945,2.08,2.924,6.489,0.984,7.838c-2.113,1.47-6.402,1.175-9.042,0.031
	c-1.683-0.73-2.743-4.345-2.946-6.762c-0.559-6.632-1.531-13.479-0.478-19.938c1.629-9.989,7.557-13.57,17.4-12.385
	c1.762,0.213,3.525,0.544,5.291,0.563c6.909,0.075,9.067-1.807,9.394-8.204c0.413-8.089-2.998-11.024-8.814-11.68
	c-6.429-0.725-12.924-0.86-19.391-1.252"/>
<path fill-rule="evenodd" clip-rule="evenodd" fill="#FFFFFF" d="M120.504,317.657c-0.784,0.196-1.561,0.524-2.353,0.567
	c-7.933,0.432-8.817,1.359-8.817,9.426c0,19.596,0,39.189,0,58.785c0,10.806,3.259,13.662,14.107,12.337
	c1.183-0.145,2.347-0.504,3.529-0.562c6.624-0.321,7.639-1.308,7.64-7.661c0.003-21.554,0.003-43.108,0-64.663
	c-0.001-6.354-1.016-7.335-7.64-7.657c-1.964-0.095-3.92-0.376-5.879-0.572"/>
<path fill-rule="evenodd" clip-rule="evenodd" fill="#FFFFFF" d="M146.369,318.245c-4.763,3.664-6.729,14.993-2.81,18.673
	c1.341,1.26,4.2,1.323,6.334,1.23c4.402-0.193,6.056,1.32,5.98,5.963c-0.258,15.672-0.107,31.351-0.094,47.026
	c0.005,5.702,1.207,6.919,7.05,7.039c3.722,0.077,7.451,0.14,11.168-0.015c5.363-0.221,7.035-2.065,7.045-7.612
	c0.028-15.284,0.134-30.569-0.059-45.851c-0.065-5.208,1.32-6.868,6.541-6.565c6.313,0.366,7.264-0.786,7.621-6.957
	c0.102-1.758,0.196-3.548-0.016-5.286c-0.986-8.115-2.949-7.813-8.2-7.723c-13.32,0.231-26.647,0.077-39.972,0.077"/>
<path fill-rule="evenodd" clip-rule="evenodd" fill="#FFFFFF" d="M401.084,421.907c-4.582-19.819-9.271-39.614-14.13-59.366
	c-1.378-5.599-7.473-9.128-15.224-9.395c-4.306-0.148-8.621-0.026-12.932-0.026h-0.588c-1.176,0.392-2.353,1.123-3.527,1.119
	c-6.826-0.021-9.66,4.349-11.146,10.056c-5.152,19.775-10.219,39.574-15.302,59.367c-1.438,5.6,1.288,9.876,7.058,10.511
	c3.484,0.382,7.063,0.294,10.569,0.02c6.02-0.471,7.155-2.033,8.341-8.159c0.553-2.863,1.72-7.365,3.525-7.876
	c4.174-1.179,8.997-0.865,13.361-0.077c1.325,0.239,2.521,3.928,2.903,6.185c1.538,9.105,4.639,11.655,13.609,10.562
	c1.375-0.168,2.737-0.462,4.116-0.572C400.279,433.573,403.006,430.219,401.084,421.907z M358.756,397.661
	c0.496-3.776,0.535-6.616,1.29-9.25c1.311-4.581,3.063-9.034,4.631-13.541h0.588c1.826,7.542,3.65,15.083,5.759,23.797
	C365.782,398.237,362.245,397.947,358.756,397.661z"/>
<path fill-rule="evenodd" clip-rule="evenodd" fill="#FFFFFF" d="M286.494,354.296c-5.922,1.726-7.867,5.581-7.768,11.759
	c0.332,20.373,0.118,40.756,0.13,61.134c0.003,5.41,1.195,6.79,6.463,7.021c3.911,0.172,7.842,0.166,11.755,0.003
	c5.906-0.245,7.002-1.496,7.047-7.611c0.038-5.094,0.085-10.19-0.018-15.284c-0.074-3.733,1.023-5.905,5.323-5.344
	c2.312,0.302,4.696,0.054,7.047,0.054c7.207,0,8.817-1.826,8.817-9.993c0-7.587-1.669-9.37-8.817-9.404
	c-1.96-0.01-3.923,0.075-5.877-0.024c-1.77-0.09-3.528-0.372-5.946-0.642c-0.168-2.044-0.549-4.223-0.476-6.389
	c0.124-3.622,1.449-5.976,5.843-5.367c2.885,0.399,5.868,0.087,8.808,0.073c6.229-0.03,8.229-2.465,8.229-9.991
	c0-7.525-2.001-9.977-8.229-9.988c-10.581-0.018-21.162-0.005-31.743-0.005"/>
<path fill-rule="evenodd" clip-rule="evenodd" fill="#FFFFFF" d="M477.358,406.574c2.079-9.663,1.673-19.454-0.766-29.407
	c-3.449-14.075-15.964-23.753-31.969-24.041c-2.351-0.042-4.703-0.006-7.055-0.006h-0.588c-6.402,2.26-13.08,3.476-18.34,8.7
	c-6.232,6.192-9.052,13.863-10.259,21.898c-1.528,10.174-1.626,20.55,2.116,30.549c3.073,8.21,7.92,14.656,16.496,17.604
	c4.295,1.475,6.009,4.523,5.865,8.838c-0.313,9.45,7.46,17.839,18.232,17.086c3.51-0.245,7.053-0.088,10.578-0.024
	c3.856,0.067,7.042-1.798,7.436-5.327c0.474-4.239,2.038-9.164-1.673-12.792c-0.999-0.977-3.426-0.424-5.171-0.726
	c-2.85-0.495-5.679-1.115-8.516-1.682c-0.3-0.808-0.6-1.613-0.899-2.419c1.178-0.587,2.302-1.341,3.541-1.733
	C469.362,428.979,474.787,418.525,477.358,406.574z M451.503,406.021c-0.181,5.376-4.4,8.587-8.643,8.235
	c-4.312-0.357-7.545-4.462-7.619-9.993c-0.096-7.053-0.005-14.108-0.03-21.162c-0.015-4.03,1.407-7.155,5.298-8.818h0.588
	c5.146-0.329,9.286,0.449,9.45,7.054C450.753,389.57,451.779,397.813,451.503,406.021z"/>
</svg>
