<?xml version="1.0" encoding="utf-8"?>
<!-- Generator: Adobe Illustrator 16.0.3, SVG Export Plug-In . SVG Version: 6.00 Build 0)  -->
<!DOCTYPE svg PUBLIC "-//W3C//DTD SVG 1.1//EN" "http://www.w3.org/Graphics/SVG/1.1/DTD/svg11.dtd">
<svg version="1.1" xmlns="http://www.w3.org/2000/svg" xmlns:xlink="http://www.w3.org/1999/xlink" x="0px" y="0px" width="500px"
	 height="500px" viewBox="0 0 500 500" enable-background="new 0 0 500 500" xml:space="preserve">
<g id="Layer_1">
	<circle fill="#F38E3B" cx="-950.182" cy="-350.826" r="244.174"/>
	<path fill="#143964" d="M-726.222-455.126c0-13.843-42.777-98.64-173.581-95.406c-123.542,3.054-273.945,81.563-273.945,95.406
		c0,0-67.707,142.174,28.793,66.299C-1103.821-421.168-726.222-441.283-726.222-455.126z"/>
	<path fill="#143964" d="M-1170.609-230.808c0,13.843,42.777,98.639,173.58,95.405c123.542-3.054,273.945-81.562,273.945-95.405
		c0,0,67.707-142.175-28.793-66.299C-793.01-264.767-1170.609-244.65-1170.609-230.808z"/>
</g>
<g id="Layer_4">
	<circle fill="#68C0BE" cx="-950.182" cy="249.144" r="244.174"/>
	<g opacity="0.3">
		<path fill="#FEE84D" d="M-901.88,266.573c0,26.335-35.467,91.752-61.802,91.752c-26.335,0-97.19-11.42-97.19-37.755
			c0-26.336,39.661-13.499,65.997-13.499C-968.541,307.071-901.88,240.237-901.88,266.573z"/>
		<path fill="#FEE84D" d="M-1035.999,164.579c0,26.335-12.037,4.5-38.372,4.5c-26.335,0-68.997,34.498-76.496-23.999
			c-3.349-26.122,40.848-28.186,67.184-28.186C-1057.349,116.895-1035.999,138.243-1035.999,164.579z"/>
		<path fill="#FEE84D" d="M-1071.989,220.648c0,26.335-54.043,57.925-80.378,57.925c-26.335,0-14.991-31.59-14.991-57.925
			c0-26.336,48.653,5.428,74.988,5.428C-1066.035,226.076-1071.989,194.313-1071.989,220.648z"/>
		<circle fill="#FEE84D" cx="-1061.177" cy="355.64" r="47.685"/>
		<circle fill="#FEE84D" cx="-872.187" cy="84.152" r="47.685"/>
		<path fill="#FEE84D" d="M-775.003,342.141c0,26.335-36.044,72.926-62.379,72.926c-26.335,0-32.99-46.591-32.99-72.926
			c0-26.336,21.349-47.685,47.685-47.685C-796.353,294.456-775.003,315.805-775.003,342.141z"/>
		<path fill="#FEE84D" d="M-864.971,421.629c0,26.334-21.35,47.684-47.685,47.684c-26.335,0-74.72-41.411-74.72-67.745
			c0-26.336,151.492,71.996,77.996-17.999C-926.037,363.171-864.971,395.293-864.971,421.629z"/>
		<path fill="#FEE84D" d="M-878.194,71.685c0,26.335,35.648,86.895,9.313,86.895c-26.335,0-133.494-99.658-133.494-125.993
			c0-26.336,57.661,5.999,83.996,5.999C-892.044,38.585-878.194,45.349-878.194,71.685z"/>
		<path fill="#FEE84D" d="M-761.477,307.633c0,26.335-21.35,47.685-47.685,47.685c-26.335,0-47.685-21.35-47.685-47.685
			c0-26.336,0.627-62.058,26.962-62.058C-803.548,245.575-761.477,281.297-761.477,307.633z"/>
	</g>
	<g opacity="0.3">
		<path fill="#A02C8A" d="M-897.978,230.999c13.516,22.601,16.651,96.948-5.951,110.466c-22.602,13.515-89.274,40.08-102.79,17.477
			c-13.517-22.602,27.11-31.939,49.713-45.457C-934.404,299.968-911.495,208.396-897.978,230.999z"/>
		<path fill="#A02C8A" d="M-1065.433,212.297c13.517,22.602-8.021,10.041-30.623,23.556c-22.603,13.517-41.51,65.021-77.969,18.665
			c-16.283-20.701,20.591-45.156,43.193-58.67C-1108.229,182.33-1078.949,189.695-1065.433,212.297z"/>
		<path fill="#A02C8A" d="M-1067.544,278.891c13.517,22.602-16.653,77.45-39.255,90.967c-22.603,13.516-29.079-19.418-42.595-42.02
			c-13.516-22.604,44.542-20.313,67.144-33.828C-1059.647,280.492-1081.06,256.287-1067.544,278.891z"/>
		<circle fill="#A02C8A" cx="-988.981" cy="389.197" r="47.684"/>
		<circle fill="#A02C8A" cx="-966.119" cy="59.197" r="47.685"/>
		<path fill="#A02C8A" d="M-750.303,230.736c13.517,22.601,6.493,81.088-16.107,94.604c-22.604,13.516-52.227-23.055-65.742-45.656
			c-13.517-22.604-6.151-51.884,16.45-65.398C-793.099,200.768-763.818,208.134-750.303,230.736z"/>
		<path fill="#A02C8A" d="M-786.721,345.131c13.515,22.602,6.15,51.882-16.452,65.398c-22.603,13.516-85.382,2.809-98.896-19.793
			c-13.518-22.602,166.968-15.963,57.701-55.479C-869.132,326.302-800.238,322.528-786.721,345.131z"/>
		<path fill="#A02C8A" d="M-977.674,51.58c13.516,22.602,75.191,56.281,52.59,69.796c-22.602,13.518-165.719-17.017-179.234-39.617
			c-13.517-22.604,52.565-24.445,75.168-37.963C-1006.548,30.279-991.191,28.977-977.674,51.58z"/>
		<path fill="#A02C8A" d="M-756.403,194.178c13.515,22.602,6.15,51.883-16.452,65.397c-22.603,13.517-51.883,6.15-65.398-16.45
			c-13.517-22.604-31.313-53.584-8.71-67.1C-824.362,162.509-769.921,171.575-756.403,194.178z"/>
	</g>
</g>
<g id="Layer_7">
	<polygon fill="#FEE84D" points="31.347,50.34 37.406,63.409 51.696,61.584 43.406,73.366 52.133,84.827 37.784,83.54 
		32.221,96.828 26.161,83.759 11.872,85.584 20.161,73.804 11.436,62.342 25.783,63.628 	"/>
	<polygon fill="#FEE84D" points="138.171,79.838 144.23,92.908 158.52,91.082 150.23,102.865 158.957,114.326 144.609,113.039 
		139.045,126.328 132.986,113.258 118.697,115.084 126.985,103.303 118.26,91.84 132.607,93.127 	"/>
	<polygon fill="#FEE84D" points="251.731,204.366 257.791,217.437 272.081,215.609 263.79,227.393 272.518,238.854 258.169,237.566 
		252.605,250.855 246.547,237.785 232.257,239.611 240.545,227.83 231.82,216.367 246.169,217.655 	"/>
	<polygon fill="#FEE84D" points="217.453,341.205 223.513,354.275 237.803,352.448 229.513,364.231 238.24,375.692 223.892,374.405 
		218.328,387.694 212.269,374.623 197.979,376.449 206.268,364.668 197.541,353.205 211.89,354.493 	"/>
	<polygon fill="#FEE84D" points="350.392,423.624 356.45,436.695 370.74,434.868 362.451,446.651 371.178,458.112 356.829,456.824 
		351.266,470.113 345.207,457.043 330.917,458.869 339.206,447.088 330.479,435.625 344.828,436.913 	"/>
	<polygon fill="#FEE84D" points="466.898,314.078 472.958,327.149 487.249,325.322 478.959,337.104 487.687,348.566 
		473.337,347.278 467.773,360.567 461.715,347.497 447.426,349.324 455.714,337.542 446.988,326.08 461.336,327.368 	"/>
	<polygon fill="#FEE84D" points="178.661,143.041 184.722,156.111 199.011,154.284 190.722,166.067 199.448,177.528 185.101,176.24 
		179.536,189.529 173.478,176.459 159.188,178.285 167.477,166.505 158.751,155.041 173.099,156.33 	"/>
	<g>
		<g>
			<path fill="#FEE84D" d="M54.925,75.622c0,0,3.351,0.432,8.315,1.338c2.485,0.442,5.375,1.002,8.461,1.644
				c1.541,0.329,3.141,0.642,4.753,1.011c1.614,0.362,3.255,0.729,4.895,1.097c1.635,0.391,3.271,0.78,4.879,1.164
				c1.612,0.374,3.185,0.799,4.714,1.179c3.055,0.778,5.896,1.546,8.323,2.24c4.858,1.368,8.058,2.454,8.058,2.454
				s-3.351-0.43-8.316-1.335c-2.485-0.442-5.375-1.001-8.461-1.644c-1.541-0.331-3.141-0.641-4.752-1.013
				c-1.615-0.362-3.255-0.73-4.895-1.098c-1.635-0.391-3.27-0.781-4.879-1.165c-1.611-0.377-3.185-0.799-4.714-1.18
				c-3.054-0.78-5.896-1.547-8.322-2.241C58.124,76.706,54.925,75.622,54.925,75.622z"/>
		</g>
		<g>
			<path fill="#FEE84D" d="M154.77,124.823c0,0,1.167,1.229,2.693,3.211c0.771,0.986,1.635,2.16,2.523,3.44
				c0.437,0.646,0.911,1.296,1.35,1.986c0.445,0.686,0.896,1.383,1.348,2.08c0.433,0.709,0.865,1.418,1.29,2.115
				c0.435,0.692,0.813,1.405,1.205,2.078c0.77,1.355,1.452,2.643,2.005,3.766c1.124,2.236,1.723,3.821,1.723,3.821
				s-1.168-1.228-2.695-3.21c-0.771-0.985-1.636-2.159-2.523-3.44c-0.436-0.646-0.914-1.295-1.349-1.986
				c-0.444-0.687-0.896-1.384-1.347-2.081c-0.433-0.709-0.864-1.418-1.289-2.116c-0.432-0.694-0.813-1.405-1.204-2.078
				c-0.769-1.356-1.451-2.644-2.005-3.767C155.37,126.407,154.77,124.823,154.77,124.823z"/>
		</g>
		<g>
			<path fill="#FEE84D" d="M374.78,433.891c0,0,1.226-1.313,3.369-3.609c2.171-2.27,5.231-5.554,8.976-9.421
				c3.733-3.879,8.12-8.373,12.851-13.158c2.37-2.387,4.819-4.854,7.309-7.359c2.501-2.494,5.043-5.027,7.584-7.561
				c2.558-2.517,5.114-5.033,7.632-7.511c2.53-2.465,5.021-4.891,7.43-7.238c4.829-4.685,9.366-9.026,13.281-12.722
				c3.902-3.708,7.218-6.735,9.509-8.884c2.318-2.121,3.643-3.333,3.643-3.333s-1.225,1.313-3.368,3.61
				c-2.171,2.27-5.229,5.556-8.975,9.422c-3.733,3.879-8.119,8.374-12.851,13.158c-2.371,2.387-4.82,4.853-7.31,7.358
				c-2.502,2.493-5.043,5.026-7.585,7.56c-2.558,2.517-5.115,5.033-7.633,7.51c-2.53,2.465-5.021,4.891-7.431,7.237
				c-4.83,4.684-9.366,9.026-13.281,12.722c-3.903,3.708-7.217,6.736-9.508,8.885C376.104,432.678,374.78,433.891,374.78,433.891z"
				/>
		</g>
		<g>
			<path fill="#FEE84D" d="M227.558,378.518c0,0,1.631,0.982,4.485,2.702c2.833,1.75,6.912,4.203,11.751,7.233
				c4.847,3.016,10.479,6.571,16.489,10.417c3,1.929,6.102,3.923,9.252,5.948c3.142,2.041,6.332,4.113,9.523,6.187
				c3.179,2.092,6.357,4.185,9.485,6.244c3.119,2.074,6.188,4.116,9.159,6.092c5.934,3.963,11.447,7.698,16.154,10.93
				c4.715,3.218,8.597,5.974,11.336,7.868c2.719,1.926,4.272,3.026,4.272,3.026s-1.631-0.982-4.485-2.701
				c-2.834-1.75-6.914-4.201-11.752-7.231c-4.848-3.017-10.479-6.571-16.489-10.418c-3.001-1.93-6.102-3.924-9.252-5.949
				c-3.141-2.041-6.332-4.114-9.522-6.188c-3.179-2.093-6.356-4.185-9.485-6.245c-3.118-2.074-6.188-4.116-9.158-6.093
				c-5.933-3.964-11.447-7.698-16.153-10.931c-4.715-3.218-8.598-5.972-11.338-7.866
				C229.111,379.618,227.558,378.518,227.558,378.518z"/>
		</g>
		<g>
			<path fill="#FEE84D" d="M243.732,246.842c0,0-0.252,1.458-0.738,3.998c-0.508,2.535-1.176,6.17-2.077,10.509
				c-0.887,4.343-1.963,9.398-3.158,14.807c-0.604,2.701-1.23,5.493-1.865,8.331c-0.653,2.833-1.316,5.711-1.979,8.589
				c-0.686,2.872-1.371,5.745-2.045,8.573c-0.665,2.83-1.376,5.602-2.033,8.292c-1.332,5.375-2.617,10.382-3.754,14.666
				c-1.121,4.287-2.142,7.84-2.814,10.336c-0.693,2.492-1.117,3.909-1.117,3.909s0.251-1.458,0.738-3.998
				c0.506-2.535,1.172-6.171,2.075-10.51c0.886-4.342,1.961-9.398,3.158-14.806c0.607-2.701,1.203-5.5,1.866-8.331
				c0.653-2.833,1.316-5.711,1.98-8.589c0.686-2.872,1.371-5.745,2.046-8.573c0.693-2.823,1.374-5.602,2.034-8.291
				c1.334-5.375,2.618-10.383,3.755-14.666c1.121-4.287,2.14-7.841,2.813-10.337C243.31,248.26,243.732,246.842,243.732,246.842z"/>
		</g>
		<g>
			<path fill="#FEE84D" d="M265.091,245.069c0,0,2.821,1.312,7.758,3.606c4.918,2.333,11.979,5.594,20.389,9.636
				c8.406,4.05,18.253,8.695,28.731,13.815c10.48,5.116,21.66,10.574,32.84,16.031c11.14,5.538,22.279,11.076,32.723,16.269
				c10.448,5.185,20.129,10.165,28.462,14.362c8.331,4.203,15.218,7.817,20.064,10.296c4.827,2.517,7.586,3.954,7.586,3.954
				s-2.821-1.311-7.758-3.605c-4.918-2.333-11.98-5.591-20.39-9.635c-8.406-4.051-18.254-8.691-28.731-13.815
				c-10.48-5.117-21.659-10.575-32.839-16.033c-11.14-5.539-22.279-11.077-32.723-16.27c-10.445-5.189-20.128-10.166-28.461-14.363
				c-8.33-4.205-15.218-7.816-20.064-10.294C267.85,246.507,265.091,245.069,265.091,245.069z"/>
		</g>
		<g>
			<path fill="#FEE84D" d="M190.2,185.866c0,0,2.429,1.259,5.924,3.365c1.753,1.045,3.773,2.3,5.913,3.681
				c1.065,0.697,2.182,1.395,3.287,2.146c1.109,0.746,2.235,1.504,3.362,2.262c1.113,0.777,2.228,1.554,3.323,2.318
				c1.103,0.756,2.154,1.548,3.19,2.288c2.061,1.497,3.96,2.929,5.567,4.187c3.226,2.498,5.275,4.311,5.275,4.311
				s-2.431-1.258-5.925-3.363c-1.753-1.045-3.774-2.299-5.914-3.681c-1.064-0.698-2.183-1.393-3.285-2.148
				c-1.109-0.746-2.235-1.504-3.362-2.262c-1.113-0.777-2.227-1.555-3.323-2.319c-1.101-0.759-2.153-1.549-3.188-2.289
				c-2.061-1.498-3.96-2.929-5.567-4.187C192.251,187.677,190.2,185.866,190.2,185.866z"/>
		</g>
	</g>
</g>
<g id="Layer_2">
	<circle fill="#D4BB42" cx="-347.212" cy="-350.826" r="244.174"/>
	<path fill="#A02C8A" d="M-109.922-280.898c-107.994-146.993-274.392-12.187-253.487-46.498
		c137.993-226.488-244.488-103.495-214.489-116.994c23.418-10.538,298.485,131.994,393.73,29.999
		C-156.746-443.757-94.718-260.203-109.922-280.898z"/>
	<path opacity="0.9" fill="#2A2E7F" d="M-123.252-455.126c-12.982-4.805-188.851-49.495-319.653-46.261
		c-123.543,3.054,91.496,70.153,91.496,83.996c0,0-322.989,107.373-226.489,31.498C-536.765-418.234,7.072-406.892-123.252-455.126z
		"/>
	<path fill="#2A2E7F" d="M-586.897-304.897c0,13.843,67.497,68.997,200.99,28.499c118.258-35.876,133.494,53.998,185.991,64.497
		c0,0,176.289-95.547,49.044-71.706C-285.413-258.399-586.897-318.739-586.897-304.897z"/>
</g>
<g id="Layer_6">
	<circle fill="#392758" cx="-347.873" cy="250.55" r="244.174"/>
	<path fill="#F38E3B" d="M-169.635,72.21c-180.303-27.577-202.642,185.406-212.121,146.362
		c-62.576-257.727,32.605,109.559-214.139,60.001c-25.177-5.057,284.139-108.788,279.366-248.258
		C-317.902-9.84-144.25,76.092-169.635,72.21z"/>
	<path opacity="0.2" fill="#FFFFFF" d="M-276.76,13.706c-85.147,77.147-168.536,98.539-258.741,193.316
		c-85.198,89.518,75.31-121.456,85.098-111.669c0,0-113.47,410.679-98.886,288.791C-543.072,332.19-173.779-79.601-276.76,13.706z"
		/>
	<path opacity="0.2" fill="#FFFFFF" d="M-188.167,115.799c-77.324,84.97-73.839-32.006-50.746,96.778
		c38.998,217.488,188.99-92.996-151.493,61.496c0,0-285.562,133.364-166.041,116.413
		C-505.501,383.262-94.647,13.031-188.167,115.799z"/>
	<path fill="#24AC3F" d="M-524.521,412.916c10.381,9.158,206.154-28.756,118.025-136.891
		c-34.493-42.322,62.738-43.762,183.416-104.725c0,0-66.711-53.808,2.984-71.268C-87.318,66.77-534.901,403.759-524.521,412.916z"/>
</g>
<g id="Layer_3">
	<circle fill="#143964" cx="252.758" cy="-350.826" r="244.174"/>
	<path fill="#196322" d="M407.468-304.897C299.474-451.89,428.563-203.089,449.467-237.4
		c137.993-226.488-94.497,347.984-307.485-37.498c-44.539-80.61,233.988,89.996,329.233-12
		C498.637-316.263,422.672-284.202,407.468-304.897z"/>
	<path fill="#196322" d="M100.734-424.771c107.994,146.992-21.095-101.808-41.999-67.497
		c-137.993,226.489,117.831-345.104,330.819,40.378c44.539,80.61-257.322-92.876-352.567,9.119
		C9.565-413.405,85.53-445.466,100.734-424.771z"/>
	<path opacity="0.9" fill="#F3F4ED" d="M455.55-495.387c-12.982-4.805-157.183-54.232-287.985-50.998
		c-123.543,3.054,28.499,55.154,28.499,68.997c0,0-234.493,42.877-137.993-32.998C99.203-542.728,585.874-447.153,455.55-495.387z"
		/>
	<path opacity="0.9" fill="#F3F4ED" d="M10.072-304.897c0,13.843,26.999,137.993,172.491,82.496
		c115.465-44.043,91.496,37.498,143.993,47.998c0,0,164.743-151.335,37.498-127.494C229.515-276.689,10.072-318.739,10.072-304.897z
		"/>
</g>
</svg>
