<?xml version="1.0" encoding="utf-8"?>
<!-- Generator: Adobe Illustrator 16.0.3, SVG Export Plug-In . SVG Version: 6.00 Build 0)  -->
<!DOCTYPE svg PUBLIC "-//W3C//DTD SVG 1.1//EN" "http://www.w3.org/Graphics/SVG/1.1/DTD/svg11.dtd">
<svg version="1.1" id="Layer_1" xmlns="http://www.w3.org/2000/svg" xmlns:xlink="http://www.w3.org/1999/xlink" x="0px" y="0px"
	 width="500px" height="500px" viewBox="0 0 500 500" enable-background="new 0 0 500 500" xml:space="preserve">
<circle fill="#392758" cx="251.48" cy="252.825" r="244.174"/>
<path fill="#F38E3B" d="M429.719,74.485C249.416,46.908,227.077,259.892,217.597,220.848
	C155.021-36.879,250.203,330.406,3.458,280.849c-25.177-5.057,284.14-108.788,279.366-248.258
	C281.451-7.564,455.104,78.367,429.719,74.485z"/>
<path opacity="0.2" fill="#FFFFFF" d="M322.594,15.981c-85.147,77.147-168.537,98.539-258.741,193.316
	c-85.198,89.518,75.31-121.456,85.098-111.669c0,0-113.47,410.679-98.886,288.791C56.281,334.466,425.574-77.325,322.594,15.981z"/>
<path opacity="0.2" fill="#FFFFFF" d="M411.186,118.074c-77.324,84.97-73.838-32.006-50.746,96.778
	c38.998,217.488,188.99-92.996-151.492,61.496c0,0-285.562,133.364-166.041,116.413C93.852,385.537,504.705,15.307,411.186,118.074z
	"/>
<path fill="#24AC3F" d="M74.832,415.191c10.381,9.158,206.154-28.756,118.025-136.891c-34.493-42.322,62.738-43.762,183.416-104.725
	c0,0-66.711-53.808,2.984-71.268C512.035,69.045,64.452,406.034,74.832,415.191z"/>
</svg>
