<?xml version="1.0" encoding="utf-8"?>
<!-- Generator: Adobe Illustrator 16.0.3, SVG Export Plug-In . SVG Version: 6.00 Build 0)  -->
<!DOCTYPE svg PUBLIC "-//W3C//DTD SVG 1.1//EN" "http://www.w3.org/Graphics/SVG/1.1/DTD/svg11.dtd">
<svg version="1.1" id="Layer_1" xmlns="http://www.w3.org/2000/svg" xmlns:xlink="http://www.w3.org/1999/xlink" x="0px" y="0px"
	 width="500px" height="500px" viewBox="0 0 500 500" enable-background="new 0 0 500 500" xml:space="preserve">
<circle fill="#68C0BE" cx="249.818" cy="250.144" r="244.174"/>
<g opacity="0.3">
	<path fill="#FEE84D" d="M298.119,267.573c0,26.335-35.467,91.752-61.801,91.752c-26.335,0-97.19-11.42-97.19-37.755
		c0-26.336,39.661-13.499,65.997-13.499C231.459,308.071,298.119,241.237,298.119,267.573z"/>
	<path fill="#FEE84D" d="M164.001,165.579c0,26.335-12.037,4.5-38.372,4.5c-26.335,0-68.997,34.498-76.496-23.999
		c-3.349-26.122,40.848-28.186,67.184-28.186C142.651,117.895,164.001,139.243,164.001,165.579z"/>
	<path fill="#FEE84D" d="M128.011,221.648c0,26.335-54.043,57.925-80.378,57.925c-26.335,0-14.991-31.59-14.991-57.925
		c0-26.336,48.653,5.428,74.988,5.428C133.965,227.076,128.011,195.313,128.011,221.648z"/>
	<circle fill="#FEE84D" cx="138.823" cy="356.64" r="47.685"/>
	<circle fill="#FEE84D" cx="327.813" cy="85.152" r="47.685"/>
	<path fill="#FEE84D" d="M424.996,343.141c0,26.335-36.044,72.926-62.379,72.926c-26.336,0-32.99-46.591-32.99-72.926
		c0-26.336,21.35-47.685,47.686-47.685C403.646,295.456,424.996,316.805,424.996,343.141z"/>
	<path fill="#FEE84D" d="M335.029,422.629c0,26.334-21.35,47.684-47.686,47.684c-26.335,0-74.719-41.411-74.719-67.745
		c0-26.336,151.493,71.996,77.997-17.999C273.963,364.171,335.029,396.293,335.029,422.629z"/>
	<path fill="#FEE84D" d="M321.806,72.685c0,26.335,35.647,86.895,9.313,86.895c-26.336,0-133.494-99.658-133.494-125.993
		c0-26.336,57.66,5.999,83.996,5.999C307.956,39.585,321.806,46.349,321.806,72.685z"/>
	<path fill="#FEE84D" d="M438.523,308.633c0,26.335-21.35,47.685-47.685,47.685s-47.685-21.35-47.685-47.685
		c0-26.336,0.627-62.058,26.963-62.058C396.451,246.575,438.523,282.297,438.523,308.633z"/>
</g>
<g opacity="0.3">
	<path fill="#A02C8A" d="M302.022,231.999c13.516,22.601,16.651,96.948-5.951,110.466c-22.602,13.515-89.274,40.08-102.79,17.477
		c-13.517-22.602,27.11-31.939,49.713-45.457C265.596,300.968,288.505,209.396,302.022,231.999z"/>
	<path fill="#A02C8A" d="M134.567,213.297c13.517,22.602-8.021,10.041-30.623,23.556c-22.603,13.517-41.51,65.021-77.969,18.665
		c-16.283-20.701,20.591-45.156,43.193-58.67C91.771,183.33,121.051,190.695,134.567,213.297z"/>
	<path fill="#A02C8A" d="M132.456,279.891c13.517,22.602-16.653,77.45-39.255,90.967c-22.603,13.516-29.079-19.418-42.595-42.02
		c-13.516-22.604,44.542-20.313,67.144-33.828C140.353,281.492,118.94,257.287,132.456,279.891z"/>
	<circle fill="#A02C8A" cx="211.019" cy="390.197" r="47.684"/>
	<circle fill="#A02C8A" cx="233.881" cy="60.197" r="47.685"/>
	<path fill="#A02C8A" d="M449.697,231.736c13.517,22.601,6.493,81.088-16.107,94.604c-22.604,13.516-52.227-23.055-65.742-45.656
		c-13.517-22.604-6.151-51.884,16.45-65.398C406.901,201.768,436.182,209.134,449.697,231.736z"/>
	<path fill="#A02C8A" d="M413.279,346.131c13.515,22.602,6.15,51.882-16.452,65.398c-22.603,13.516-85.382,2.809-98.896-19.793
		c-13.518-22.602,166.968-15.963,57.701-55.479C330.868,327.302,399.762,323.528,413.279,346.131z"/>
	<path fill="#A02C8A" d="M222.326,52.58c13.516,22.602,75.191,56.281,52.59,69.796c-22.602,13.518-165.719-17.017-179.234-39.617
		c-13.517-22.604,52.565-24.445,75.168-37.963C193.452,31.279,208.809,29.977,222.326,52.58z"/>
	<path fill="#A02C8A" d="M443.597,195.178c13.515,22.602,6.15,51.883-16.452,65.397c-22.603,13.517-51.883,6.15-65.398-16.45
		c-13.517-22.604-31.313-53.584-8.71-67.1C375.638,163.509,430.079,172.575,443.597,195.178z"/>
</g>
</svg>
