<?xml version="1.0" encoding="utf-8"?>
<!-- Generator: Adobe Illustrator 16.0.3, SVG Export Plug-In . SVG Version: 6.00 Build 0)  -->
<!DOCTYPE svg PUBLIC "-//W3C//DTD SVG 1.1//EN" "http://www.w3.org/Graphics/SVG/1.1/DTD/svg11.dtd">
<svg version="1.1" id="Layer_1" xmlns="http://www.w3.org/2000/svg" xmlns:xlink="http://www.w3.org/1999/xlink" x="0px" y="0px"
	 width="500px" height="500px" viewBox="0 0 1080 1080" enable-background="new 0 0 1080 1080" xml:space="preserve">
<path fill="#E31630" d="M1068,524.935c0,0-293.511,14.86-295.679,26.854c-2.525,13.988,118.736,105.813,118.736,105.813
	S749.8,615.729,742.824,626.553C735.212,638.368,906,892,906,892S690.19,683.111,674.87,692.267
	c-12.694,7.586,18.728,159.759,18.728,159.759s-84.303-134.111-97.467-132.388c-8.865,1.16-34.906,286.849-34.906,286.849
	s-33.732-288.268-52.944-294.172C495.09,708.261,390,836,390,836s51.646-157.679,39.176-169.156C423.966,662.048,212,850,212,850
	s184.73-220.327,177.694-232.606c-7.037-12.276-106.209,28.057-106.209,28.057s83.218-87.446,81.538-98.056
	C363.341,536.784,4,514.821,4,514.821s359.533-24.232,361.574-35.887c2.874-16.403-130.695-122.082-130.695-122.082
	s154.773,54.86,160.875,45.481C402.078,392.611,216,178,216,178s219.003,179.125,229.138,171.516
	c10.214-7.668-15.836-150.633-15.836-150.633s74.828,119.227,88.911,115.663c16.262-4.114,50.831-285.783,50.831-285.783
	s24.243,280.549,35.906,282.592c12.412,2.176,97.76-130.699,97.76-130.699s-41.12,149.095-31.482,154.591
	c14.856,8.473,233.499-162.189,233.499-162.189S724.053,378,729.465,384.664c9.448,11.629,173.745-36.925,173.745-36.925
	s-139.321,97.178-135.838,109.113C772.742,475.243,1068,524.935,1068,524.935z"/>
<path fill="#F38E3B" d="M994.62,519.349c0,0-253.818,21.429-255.678,31.721c-2.168,12.001,101.884,90.794,101.884,90.794
	s-121.21-35.93-127.194-26.641C707.1,625.359,854.16,827.538,854.16,827.538s-185.693-163.786-198.838-155.93
	c-10.892,6.509,16.069,137.083,16.069,137.083s-72.338-115.076-83.633-113.598c-7.607,0.996-30.631,237.877-30.631,237.877
	s-28.266-239.094-44.75-244.16c-11.32-3.479-101.466,105.149-101.466,105.149s44.289-134.316,33.589-144.165
	c-4.47-4.117-180.543,149.973-180.543,149.973s152.704-181.868,146.666-192.404c-6.039-10.535-91.135,24.073-91.135,24.073
	s71.406-75.034,69.964-84.139c-1.442-9.104-309.78-27.949-309.78-27.949s308.502-20.792,310.254-30.794
	c2.465-14.074-112.146-104.753-112.146-104.753s132.806,47.074,138.042,39.026c5.426-8.343-151.314-188.99-151.314-188.99
	s184.993,150.197,193.689,143.668c8.765-6.58-13.588-129.253-13.588-129.253s64.207,102.305,76.292,99.246
	c13.953-3.53,43.616-245.22,43.616-245.22s20.803,240.729,30.81,242.482c10.65,1.868,83.885-112.148,83.885-112.148
	s-35.283,127.934-27.016,132.65c12.75,7.27,200.357-139.168,200.357-139.168S697.524,401.947,702.168,407.665
	c8.106,9.979,149.085-31.684,149.085-31.684s-119.547,83.385-116.558,93.625C739.302,485.388,994.62,519.349,994.62,519.349z"/>
<path fill="#F8B441" d="M938.821,522.642c0,0-223.284,18.851-224.92,27.904c-1.906,10.558,89.627,79.871,89.627,79.871
	S696.9,598.811,691.635,606.981c-5.746,8.918,119.583,181.829,119.583,181.829S651.905,649.674,640.341,656.584
	c-9.582,5.726,14.136,120.592,14.136,120.592s-63.635-101.232-73.571-99.931c-6.691,0.875-27.521,202.258-27.521,202.258
	s-24.289-203.329-38.791-207.786c-9.957-3.061-89.235,91.669-89.235,91.669s38.938-117.328,29.524-125.992
	c-3.933-3.619-153.901,125.841-153.901,125.841s129.41-153.898,124.099-163.167c-5.312-9.268-80.171,21.178-80.171,21.178
	s62.816-66.008,61.548-74.017c-1.27-8.008-272.514-24.587-272.514-24.587s271.39-18.291,272.931-27.088
	c2.168-12.382-98.654-92.153-98.654-92.153s116.828,41.412,121.435,34.332C434.427,430.393,306,270,306,270
	s153.281,133.606,160.931,127.863c7.71-5.788-11.954-113.704-11.954-113.704s56.483,89.997,67.114,87.307
	c12.274-3.105,38.369-215.721,38.369-215.721s18.3,211.77,27.103,213.312c9.369,1.643,73.793-98.657,73.793-98.657
	s-31.039,112.543-23.765,116.692c11.215,6.395,176.254-122.426,176.254-122.426S677.466,419.364,681.552,424.394
	c7.131,8.779,131.149-27.872,131.149-27.872s-105.165,73.354-102.536,82.362C714.219,492.766,938.821,522.642,938.821,522.642z"/>
<circle fill="#FEE84D" cx="562.764" cy="519.625" r="139.879"/>
</svg>
