<?xml version="1.0" encoding="utf-8"?>
<!-- Generator: Adobe Illustrator 16.0.3, SVG Export Plug-In . SVG Version: 6.00 Build 0)  -->
<!DOCTYPE svg PUBLIC "-//W3C//DTD SVG 1.1//EN" "http://www.w3.org/Graphics/SVG/1.1/DTD/svg11.dtd">
<svg version="1.1" id="Layer_1" xmlns="http://www.w3.org/2000/svg" xmlns:xlink="http://www.w3.org/1999/xlink" x="0px" y="0px"
	 width="500px" height="500px" viewBox="0 0 500 500" enable-background="new 0 0 500 500" xml:space="preserve">
<circle fill="#D4BB42" cx="251.683" cy="250.174" r="244.174"/>
<path fill="#A02C8A" d="M488.975,320.102c-107.994-146.992-274.392-12.187-253.487-46.498C373.48,47.116-9,170.109,20.998,156.61
	c23.418-10.538,298.484,131.994,393.73,29.999C442.15,157.243,504.178,340.797,488.975,320.102z"/>
<path opacity="0.9" fill="#2A2E7F" d="M475.645,145.874c-12.982-4.805-188.852-49.495-319.653-46.261
	c-123.543,3.054,91.496,70.153,91.496,83.996c0,0-322.989,107.374-226.489,31.498C62.131,182.766,605.969,194.108,475.645,145.874z"
	/>
<path fill="#2A2E7F" d="M11.999,296.104c0,13.842,67.497,68.996,200.99,28.498c118.258-35.876,133.494,53.998,185.99,64.497
	c0,0,176.289-95.548,49.045-71.706C313.482,342.601,11.999,282.261,11.999,296.104z"/>
</svg>
